<?xml version="1.0" encoding="utf-8"?>
<!-- Generator: Adobe Illustrator 25.2.0, SVG Export Plug-In . SVG Version: 6.00 Build 0)  -->
<svg version="1.1" xmlns="http://www.w3.org/2000/svg" xmlns:xlink="http://www.w3.org/1999/xlink" x="0px" y="0px"
	 viewBox="0 0 650 500" style="enable-background:new 0 0 650 500;" xml:space="preserve">
<style type="text/css">
	.st0{fill:#FFFFFF;}
	.st1{opacity:0.45;fill:#F7EEEB;}
	.st2{fill:#FE8E68;}
	.st3{fill:#3D302A;}
	.st4{fill:#BC744A;}
	.st5{fill:#874C2E;}
	.st6{fill:#56211A;}
	.st7{fill:#CC6144;}
	.st8{fill:none;stroke:#000000;stroke-width:2.1886;stroke-linecap:round;stroke-miterlimit:10;}
	.st9{fill:#2D2442;}
	.st10{fill:#5A4F72;}
	.st11{fill:#C1ADA4;}
	.st12{fill:#433735;}
	.st13{fill:#9B8580;}
	.st14{fill:#EED9CE;}
	.st15{fill:#FFFBF9;}
	.st16{fill:#DBC4BD;}
	.st17{fill:#D6CED7;}
	.st18{fill:#594C4A;}
	.st19{fill:none;stroke:#F9F9F9;stroke-width:1.0943;stroke-miterlimit:10;}
	.st20{fill:#F9F9F9;}
	.st21{opacity:0.16;}
	.st22{opacity:0.29;}
</style>
<g id="BACKGROUND">
	<rect class="st0" width="650" height="500"/>
</g>
<g id="OBJECTS">
	<path class="st1" d="M598.3,293.8c-14.1-22.5-33.5-40.4-53.6-56.5c-16.8-13.5-35.4-27.4-42.4-49c-3.8-11.8-3.7-24.8-8-36.3
		c-5.7-15.4-23.3-34.1-38.3-40.8c-23-10.3-50.7,5.3-74.6-2.7c-9.9-3.3-12.5-9.7-19.3-16.3c-7.3-7.1-16-13.3-24.4-19
		C321.3,61.9,303,52.9,283.4,49c-34.6-6.9-71.5,3-100,24.4c-17.2,12.9-31.4,29.9-42,48.9c-10.1,18.2-14.6,38.4-24,56.8
		c-17.6,34.5-54.1,53.6-71.4,88.3c-12.7,25.5-13.2,56.7-6.5,84.9c6.7,28.1,20,53.8,34,78.5c0.1,0.1,0.1,0.2,0.2,0.3h23.1
		c88.1-0.3,467.6-1.5,476.6,0.3h17.5c12.8-11.1,24.5-41.9,26.8-60.5C621,343.9,612.4,316.3,598.3,293.8z"/>
	<g>
		<g>
			<g>
				<path class="st2" d="M414.2,265.6c-3.2,5-11.6,10.9-17.5,10.8c-20.2-0.4-26.8-14.1-29-19.1c0.4-0.1,1.1-0.2,1.6-0.2
					c3.7-0.5,7.5-4.2,8.6-8.4c1.4-5.4,3.2-16,3-22.7l25.5,14.1c0,1.9-0.2,4.1-0.4,6.2c-0.1,1.3-0.3,2.6-0.4,3.8
					c-0.1,1.2-0.3,2.3-0.4,3.4c-0.5,3.5,1.1,7,4,8.9L414.2,265.6z"/>
			</g>
			<g>
				<path class="st3" d="M416.4,210.6c-1.4,3.6-0.8,7.7,0.6,11.3c1,2.6,3.2,0.3,5.9,0.3c4.2,0.1,7.5-4.3,10.1-16
					c1.6-8.6,2-12.9,1.7-13.8c-1.2-3-5-4.6-8.2-4.8"/>
			</g>
			<g>
				<path class="st2" d="M422.8,184.9c6.7,8,9.1,30.7,3.5,46.5c-4,11.2-8.7,18.5-14.1,18.2c-8.3-0.4-24.3-7.1-29.5-12.8
					c-9.4-10.2-6.7-30.2-4.7-42.8c1.8-11.5,7.1-26.3,21.5-23.5C409,172.4,416.8,177.7,422.8,184.9z"/>
			</g>
			<g>
				<path class="st3" d="M384.9,192.2c1.5,1.8,4.1,2.2,6.2,2.5c2.9,0.5,4.3,1.5,5.8,4.1c1,1.7,1.9,3.5,3.6,4.4
					c0.8,0.4,2,0.5,2.4-0.3c-0.8-0.5-1-1.6-0.8-2.4c0.2-0.9,0.7-1.7,1.3-2.4c0.5,0.7,0.5,1.5,0.8,2.3c0.4,1,1.1,1.9,2.1,2.4
					c0.2,0.1,0.3,0.1,0.5,0.1c0.2,0,0.4-0.2,0.6-0.4c1.1-1.3,2.1-3.7,3.5-4.4c0.3,1.4,0.8,2.5,1.7,3.6c0.7,1,1.6,2,2.8,2.2
					c0.4,0.1,0.9,0,1.1-0.3c0.2-0.4-0.1-0.9-0.1-1.3c0.1-0.4,0.2-0.6,0.5-0.9c0.5-0.9,1-1.8,1.7-2.5c1.4,1.6,3,3.1,4.7,4.5
					c0.4,0.3,0.9,0.6,1.3,0.3c0.2-0.2,0.2-0.4,0.3-0.7c0.2-1.3,0.4-2.5,0.6-3.8c0.1-0.7,0.5-1.6,1.2-1.5c0.3,0.1,0.5,0.4,0.7,0.7
					c0.2,0.4,4.3,4.7,4.4,4.4c0.6-2.5,2-4.7,2.6-7.2c4.1-15.8-14.3-28.6-28.3-28.6c-3.1,0-6,0.6-9.1,1.3c-3.2,0.7-6.6,1.2-9.5,2.9
					c-4.1,2.3-7.2,6.3-6.4,11.2"/>
			</g>
			<g>
				<path class="st3" d="M391.7,188c2,2.3,2.6,5.6,2.8,8.6c0.3,4.6-0.1,9.4-2.2,13.5c-0.6,1.2-1.1,7-2,6.6c-0.3-0.1-0.2-4.6-1-7
					c-1.2-3.8-6.8-5.2-9.4-2.8c-4,3.8-1.7,8.4-0.3,11.2c0.8,1.7,2.1,3.7,2.3,5.5c0.3,2.3,0.4,10.8-1.2,12.8
					c-1.3,1.7-2.6-6.4-3.8-7.9c-8.5-11.8-16.7-41.7-2.1-48.2c2.2-1,9-1.5,11.1-0.2"/>
			</g>
		</g>
		<path class="st4" d="M445.4,426.2c0.8,0.1,1.7,0.3,2.6,0.3c4.7,0.2,9.2-0.9,13.8-1.7c4-0.7,5.1-1.1,5-5.9
			c-0.7-38.4-6.3-76.7-16.5-113.8c-1.6-5.7-3.2-11.4-6.2-16.4c-5.1-8.6-16.7-16.1-25.6-20.3c-1.3-0.6-6.5,2.7-7.8,2.2
			c-1.1-0.5-2.1-1.3-3.2-1.8c-3.3-1.4-5.5,1.6-8.2,2.8c-1.4,0.6-3,1-4.6,1c-1.3-0.1-2.4-0.8-3.6-0.2c-5.2,2.7-18.2-17.3-18.2-17.3
			l-5.6,5.9l-16.4,17.2l-41.1,56.6c0,0-7.5,46.4-12.6,76.7c-0.9,5.2-4.4,16.6-5.1,20.5c0.1-0.9,35-1.1,36.9-1.1
			c24.3,0,46.9,0,71.1,0c4,0,14.7,1.7,17.5-1.2c3.4-3.6,7.4-20.1,7.6-24.8c0.7-15.6-0.4-31-0.6-46.7c0.1,6.4,1.9,12.1,2.7,18.4
			c1,8,2.4,16.1,3.7,24c1,6.4,2,12.9,2.8,19.3c0.4,2.9-0.1,4.6,2.4,5.8C438.5,426.7,443,425.8,445.4,426.2z"/>
		<path class="st2" d="M432.3,412.9c-1.9-0.8-13.6-3.7-18.9-4.8c-2.8-0.6-15.3-3.8-18.2-3.8c-2.9,0-6.9,4.2-6.9,4.2l1,14.3
			c2.8-0.3,6.5,1.2,8.6,1.5c2,0.3,8.8,0.3,13-1.8c0.2-0.1,0.5-0.3,0.7-0.4c1.7,1.5,3.8,3,6.2,3.1c0,0,1.8-0.2,1.7-0.9
			c-0.1-0.4-1.3-2.2-2.5-4c1.8,1.8,4.7,4.8,8.1,5c0,0,1.8-0.2,1.7-0.9c-0.1-0.4-1.9-3.1-3.3-5.2c0,0,0,0,0.1,0c1.5,1.3,5,5.8,9.2,6
			c0,0,1.8-0.2,1.7-0.9c-0.1-0.3-0.8-1.4-1.6-2.7c1.1,0.8,2.4,1.7,4,2.5c4.5,2.2,7.1,0.5,7.1,0C443.8,423.5,434.2,413.7,432.3,412.9
			z"/>
		<path class="st5" d="M391.5,396.3c0,0,7.3,4.1,6.7,12.9c-0.6,8.8-3.3,19-14.3,17.9C372.8,426.1,391.5,396.3,391.5,396.3z"/>
		<path class="st4" d="M381.4,426.3c-26.4,9.2-61.8,0.4-84.2-14.8c-14-9.5-23-21.6-21.5-33.4c3.9-30.7,28-101,48.9-111.3
			c14.2-7,31.4-9.9,41-11c4.5-0.5,7.3-0.7,7.3-0.7l-3.5,9.8L352,314c-0.6,29.2-21.5,46.5-17.4,53.2c4.1,6.8,36.9,14.1,54.1,25.7
			C393.6,396.2,399.6,419.5,381.4,426.3z"/>
		<g>
			<path class="st5" d="M275.8,378.8l-0.1,2c0,0.3,0,0.7,0,1l0.1,1c0.1,0.7,0.1,1.4,0.3,2l0.5,2c0.8,2.6,1.9,5.1,3.4,7.3
				c2.9,4.6,6.7,8.5,11,11.8c8.5,6.7,18.3,11.8,28.5,15.4c10.2,3.7,20.9,6.2,31.7,7.1c5.4,0.5,10.9,0.5,16.3,0.1
				c5.4-0.4,10.8-1.4,16-3c-5.1,1.9-10.5,3.1-15.9,3.8c-5.4,0.6-11,0.7-16.4,0.4c-5.5-0.3-10.9-1.1-16.3-2.3
				c-5.4-1.2-10.6-2.7-15.8-4.6c-5.1-1.9-10.2-4.1-15-6.8c-4.8-2.6-9.5-5.6-13.7-9.2c-4.2-3.5-8-7.6-10.9-12.3
				c-1.4-2.3-2.5-4.9-3.2-7.6C275.5,384.3,275.5,381.5,275.8,378.8z"/>
		</g>
		<g>
			<path class="st5" d="M352,314c0,5.5-0.7,11.1-2.2,16.4c-1.5,5.4-3.6,10.5-6,15.5c-1.2,2.5-2.5,4.9-3.9,7.3
				c-1.3,2.4-2.7,4.8-3.8,7.3c-0.6,1.2-1,2.5-1.2,3.7c-0.1,0.6-0.1,1.2,0.1,1.8c0,0.3,0.2,0.5,0.3,0.8c0.2,0.2,0.3,0.5,0.6,0.7
				c1.8,1.8,4.3,3,6.8,4.2c10,4.5,20.6,7.9,30.7,12.5c5.1,2.3,10.1,4.7,14.7,7.8l0.9,0.6c0.3,0.2,0.6,0.5,0.8,0.7
				c0.5,0.5,1,1.1,1.3,1.7c0.7,1.2,1.2,2.5,1.6,3.9c0.7,2.7,1,5.5,1.1,8.2c-0.2-2.8-0.6-5.5-1.5-8.1c-0.9-2.6-2.2-5.1-4.7-6.3
				c-4.7-2.9-9.7-5.2-14.8-7.3c-5.1-2.1-10.2-4.1-15.4-6c-5.2-2-10.4-3.8-15.4-6.1c-2.5-1.2-5.1-2.4-7.2-4.6
				c-0.3-0.3-0.5-0.6-0.7-0.9c-0.2-0.4-0.4-0.7-0.5-1.1c-0.2-0.8-0.2-1.6-0.1-2.3c0.2-1.5,0.8-2.8,1.4-4.1c1.2-2.6,2.6-5,3.9-7.4
				c1.4-2.4,2.7-4.8,4-7.2C347.9,335.8,351.5,325.1,352,314z"/>
		</g>
		<path class="st4" d="M420.5,269.4c-2.5,2.5-13.7,10.5-24.4,10.5c-1.8,0-3.7-0.2-5.7-0.5c-9-1.6-16.5-7.6-21-14.5
			c-0.8-1.3-1.5-2.6-2.1-3.9c-0.8-1.7-1.4-3.5-1.7-5.2c4.5-0.5,8.8-1.7,9.5-2.5c0.8,5.2,7.2,14.7,17,16.5c1.2,0.2,2.4,0.3,3.5,0.4h0
			c4.6,0.1,8.1-1.4,10.5-2.9c0,0,4.7-3.7,4.7-3.7L420.5,269.4z"/>
		<ellipse class="st6" cx="405.3" cy="217.4" rx="1.8" ry="3.6"/>
		<ellipse class="st0" cx="406.1" cy="218.8" rx="0.8" ry="1.1"/>
		<ellipse class="st6" cx="424.8" cy="219" rx="1.8" ry="3.6"/>
		<path class="st0" d="M418.6,234.4c0,0.8-3.2,5.4-6.3,5c-2.6-0.3-4.8-5.1-3.5-7.3C409.6,231.3,418.6,233.6,418.6,234.4z"/>
		<g>
			<g>
				<path class="st3" d="M399.9,208.6c2.2-2,7.7-1.2,9.9,0.3c0.4,0.3,0.9-0.4,0.6-0.7c-1.6-1.5-4.2-1.6-6.2-1.6
					c-1.6,0.1-4.1,0-4.7,1.8C399.5,208.6,399.8,208.7,399.9,208.6L399.9,208.6z"/>
			</g>
		</g>
		<g>
			<g>
				<path class="st3" d="M421.9,209.9c1.4-0.1,2.6-0.4,4,0c1.4,0.3,2.4,1.2,3.6,1.8c0.3,0.1,0.5-0.1,0.4-0.4c-1.2-2.6-5.9-3.6-8.2-2
					C421.5,209.5,421.5,209.9,421.9,209.9L421.9,209.9z"/>
			</g>
		</g>
		<g>
			<g>
				<path class="st7" d="M416.4,217.5c-0.1,2.1,0,4.2,0.3,6.2c0.1,0.7,1.1,2.7,0.9,3.3c-0.2,0.7-1.4,1.5-1.8,2.2
					c-0.2,0.3,0.2,0.7,0.5,0.5c1.2-0.6,2.6-1.6,2.4-3c-0.2-1.4-0.9-2.7-1.1-4.1c-0.3-1.7-0.3-3.4-0.4-5.1
					C417.2,216.9,416.4,216.9,416.4,217.5L416.4,217.5z"/>
			</g>
		</g>
		<ellipse class="st0" cx="425.4" cy="220.4" rx="0.8" ry="1.2"/>
		<g>
			<g>
				<path class="st7" d="M394.8,243c2.8,3.3,7.6,5.5,12,5.7c0.4,0,0.5-0.7,0.1-0.8c-4.6-0.9-8-2.4-11.6-5.3
					C394.9,242.3,394.6,242.7,394.8,243L394.8,243z"/>
			</g>
		</g>
		<g>
			<g>
				<path class="st5" d="M372.9,253.5c-6.5-3.1-10,6.7-10.6,11.5c-1.3,9.2,2.8,17.8,6.5,25.9c3.9,8.6,8.4,16.8,12.3,25.3
					c2.1,4.4,3.9,8.9,5.3,13.6c1.4,4.9,1.6,10.3,3.4,15c0.2,0.6,1.1,0.5,1.2-0.2c0.9-6.8-2.2-15.2-4.5-21.6
					c-2.3-6.1-5.2-11.9-8.1-17.8c-3.8-7.6-7.6-15.3-10.7-23.2c-1.6-4-2.8-8.1-3.1-12.4c-0.2-3.4,1-17.3,7.7-14.6
					C373.2,255.6,373.9,253.9,372.9,253.5L372.9,253.5z"/>
			</g>
		</g>
		<g>
			<g>
				<path class="st5" d="M410.9,264c8.2,3.1,5.3,18.1,4.2,24.5c-1.4,7.9-3.9,15.5-7.1,22.9c-6.2,14.3-14.6,27.5-22.1,41.2
					c-0.6,1.1,1.1,2.1,1.7,1c9.3-16.4,20-32.3,26.2-50.3c2.9-8.3,4.7-17.1,4.8-26c0.1-5.9-0.8-13-7.1-15.2
					C410.2,261.7,409.8,263.5,410.9,264L410.9,264z"/>
			</g>
		</g>
		<path class="st5" d="M400,345.6c-6.3-0.2-12.6-0.4-19-0.6c-1,0-1.6,0.8-1.7,1.7c-1.2,9.5-1.6,19.2-3,28.6
			c-0.2,1.1,0.4,2.2,1.7,2.2c6.2,0.1,12.5,0.3,18.7,0.4c0.3,0,0.6-0.1,0.8-0.2c0,0,0,0,0,0c0.1,0,0.1-0.1,0.2-0.1
			c0.3-0.2,0.5-0.5,0.6-0.9c2.4-9.3,2.4-19.8,3.4-29.4C401.8,346.4,400.9,345.6,400,345.6z"/>
		<g>
			<g>
				<path class="st5" d="M425.1,384.1c0.3-5.1-0.2-10.4-0.3-15.5c0-5.3,0.1-10.7,0.4-16c0.3-5.2,0.7-10.3,1.3-15.5
					c0.6-5.3,1.7-10.6,2.3-15.8c0.1-0.7-1.1-0.8-1.2-0.2c-1.2,4.9-1.7,10.1-2.3,15.1c-0.6,5.5-1.1,11-1.4,16.4
					c-0.3,5.3-0.3,10.7-0.2,16c0.1,5.2,0.1,10.5,1.2,15.5C424.9,384.2,425.1,384.2,425.1,384.1L425.1,384.1z"/>
			</g>
		</g>
		<g>
			<g>
				<path class="st5" d="M372.5,263.1c1.7,6.9,9.4,12.8,16.3,13.8c0.6,0.1,0.8-0.7,0.2-0.9c-3.5-1.1-6.8-2.6-9.7-5
					c-2.7-2.3-4.4-5.2-6.4-8.2C372.8,262.6,372.4,262.8,372.5,263.1L372.5,263.1z"/>
			</g>
		</g>
		<g>
			<g>
				<path class="st5" d="M395.2,276.9c1.2-0.3,2.4-0.5,3.5-0.9c1-0.3,2.1-0.5,3.1-1.1c0.3-0.2,0.2-0.6-0.2-0.6
					c-2.2-0.1-4.6,1.1-6.7,1.8C394.5,276.3,394.7,277,395.2,276.9L395.2,276.9z"/>
			</g>
		</g>
		<g>
			<g>
				<path class="st7" d="M383.7,212c0.7-1,1.7,2.1,1.7,2.4c0.2,1.2-0.1,2.3-0.4,3.5c-0.1,0.4,1.2,0.1,1.4-0.2
					c0.9-1.7,0.9-4.7-0.6-6.1c-1-0.9-2.8-0.6-3.5,0.5C382,212.5,383.4,212.3,383.7,212L383.7,212z"/>
			</g>
		</g>
		<g>
			<g>
				<path class="st7" d="M385.8,214.4c0-0.1,0-0.3,0-0.4c0,0,0-0.1,0-0.1c-0.5-0.7-1.4-1-2.2-0.7c-0.1,0-0.2,0.1-0.2,0.2
					c0.2,0.2,0.6,0.2,0.8,0.3c0.2,0.1,0.4,0.2,0.5,0.4c0.2,0.2,0.4,0.2,0.6,0.4C385.5,214.6,385.8,214.5,385.8,214.4L385.8,214.4z"
					/>
			</g>
		</g>
		<g>
			<g>
				<path class="st7" d="M408.7,240.1c0.8,1.1,2.4,1.6,3.6,0.9c0.1-0.1,0.1-0.1,0-0.1c-1,0.1-2-0.2-2.6-1.1
					C409.4,239.5,408.5,239.8,408.7,240.1L408.7,240.1z"/>
			</g>
		</g>
		<g>
			<g>
				<path class="st7" d="M401.3,219.1c-0.1,0.8-0.1,1.5,0.4,2.2c0.4,0.6,0.9,1.1,1.6,1.2c0.1,0,0.5-0.1,0.4-0.2
					c-0.4-0.5-1-0.8-1.3-1.5c-0.3-0.5-0.6-1.2-0.6-1.8C401.7,218.9,401.3,219,401.3,219.1L401.3,219.1z"/>
			</g>
		</g>
		<g>
			<g>
				<path class="st7" d="M425.2,224.1c0.1,0,0.3-0.1,0.1-0.1C425.3,224,425.1,224.1,425.2,224.1L425.2,224.1z"/>
			</g>
		</g>
		<g>
			<g>
				<path class="st7" d="M426.4,223.9c0.7-0.3,1.6-1.3,1-2.1c0-0.1-0.2,0-0.3,0.1c-0.3,0.7-0.4,1.5-1.1,1.9
					C425.5,223.9,426.2,224,426.4,223.9L426.4,223.9z"/>
			</g>
		</g>
		<g>
			<g>
				<path class="st5" d="M425.4,344.1c0.3-4.2,2.2-7.6,4.8-10.9c2-2.5,4.5-4.2,6.9-6.4c0.3-0.2,0-0.7-0.3-0.6
					c-3.4,1.1-6.1,4.5-8.1,7.2c-2.1,2.9-5.1,6.9-3.8,10.7C424.9,344.5,425.3,344.4,425.4,344.1L425.4,344.1z"/>
			</g>
		</g>
		<g>
			<g>
				<path class="st5" d="M424.9,346.6c1.1-1.3,1.7-2.9,2.7-4.3c1.1-1.7,2.4-3.2,3.8-4.6c0.3-0.3,2.9-3,3.2-0.8
					c0.2,1.4-2.6,1.9-3.4,2.4c-0.9,0.6-1.5,1-1.5,2.1c0,0.4,0.5,0.5,0.7,0.2c1.1-2.2,5-2.1,5.4-5c0.2-1.2-0.8-1.9-1.9-1.8
					c-2,0.2-4.2,3.2-5.3,4.6c-1.6,2-3.5,4.5-3.9,7.1C424.6,346.6,424.8,346.7,424.9,346.6L424.9,346.6z"/>
			</g>
		</g>
		<g>
			<g>
				<path class="st5" d="M385.2,399.4c0,3.5-0.1,6.8-1.3,10.1c-1.2,3.3-3.4,5.8-5.4,8.5c-0.2,0.2,0.1,0.4,0.3,0.3
					c5.9-3.3,8.9-12.8,6.9-19.1C385.6,399,385.2,399,385.2,399.4L385.2,399.4z"/>
			</g>
		</g>
		<g>
			<g>
				<path class="st5" d="M411.5,367.5c-0.8,5.3-1.8,10.2-4.6,14.9c-2.7,4.7-6.6,8.8-11.2,11.8c-0.4,0.2,0,0.8,0.3,0.6
					c9.2-5.2,16.9-16.2,16.3-27.2C412.3,367.2,411.6,367.1,411.5,367.5L411.5,367.5z"/>
			</g>
		</g>
		<g>
			<g>
				<path class="st5" d="M441.6,231.9c1.2-0.5,2.6-0.9,3.4-2c0.1-0.2,0-0.4-0.2-0.4c-1.3,0-2.5,0.9-3.5,1.5
					C440.8,231.3,441.1,232.1,441.6,231.9L441.6,231.9z"/>
			</g>
		</g>
		<g>
			<g>
				<path class="st5" d="M441.7,234.8c0.7,0.5,1.8,0.9,2.6,0.4c0.2-0.1,0.2-0.5,0-0.6c-0.3-0.2-0.7-0.2-1.1-0.3
					c-0.4-0.1-0.8-0.2-1.2-0.4C441.6,233.7,441.3,234.6,441.7,234.8L441.7,234.8z"/>
			</g>
		</g>
		<g>
			<g>
				<path class="st5" d="M440.7,240.5c0.7,0.4,1.6,1.1,2.4,1c0.2,0,0.4-0.2,0.2-0.4c-0.4-0.7-1.5-1.1-2.2-1.4
					C440.6,239.5,440.1,240.2,440.7,240.5L440.7,240.5z"/>
			</g>
		</g>
	</g>
	<g>
		<polyline class="st8" points="81.5,431.5 108.6,431.5 154.2,431.5 173.2,431.5 221.1,431.5 573.3,431.5 590.8,431.5 605.7,431.5 
					"/>
		<line class="st8" x1="74.9" y1="431.5" x2="45.5" y2="431.5"/>
		<line class="st8" x1="614.8" y1="431.5" x2="609.9" y2="431.5"/>
	</g>
	<g>
		<path class="st9" d="M546.8,425.4h-166c-1.6,0-2.9,1.3-2.9,2.9v0.2c0,1.6,1.3,2.9,2.9,2.9h166c1.6,0,2.9-1.3,2.9-2.9v-0.2
			C549.7,426.7,548.4,425.4,546.8,425.4z"/>
		<g>
			<path class="st9" d="M579.2,351.5c-34.5-0.3-69.1-0.7-103.6-1c-4.9,0-9.8-0.1-14.7-0.1c-0.8,0-1.7,0.4-2.1,1.2
				c-9.5,21.9-19,43.8-28.5,65.7c-1.4,3.1-2.7,6.3-4.1,9.4c0,0.1-0.1,0.2-0.1,0.3c0,0,0,0,0,0c0,0.1-0.1,0.2-0.1,0.3
				c-0.3,1.3,0.4,2.8,1.9,2.9c0.4,0.1,0.7,0.1,1.1,0c35.5,0.3,71,0.6,106.5,0.8c5.1,0,10.1,0.1,15.2,0.1c1.1,0,1.9-0.8,2.3-1.8
				c9.5-25,18.9-49.9,28.4-74.9C582,353,580.6,351.5,579.2,351.5z"/>
			<g>
				<path class="st9" d="M579.2,349.8c-31.9-0.3-63.8-0.6-95.7-1c-3.9,0-7.8-0.1-11.6-0.1c-3.5,0-7.6-0.7-11-0.1
					c-5.1,0.8-6.5,8.9-8.2,13c-6.3,14.6-12.7,29.2-19,43.8c-2.7,6.3-5.4,12.5-8.1,18.8c-1,2.4-2,5.2,0.7,7c1.4,0.9,3.4,0.6,4.9,0.6
					c3.9,0.1,7.9,0.1,11.8,0.1c7.9,0.1,15.8,0.1,23.7,0.2c15.8,0.1,31.6,0.2,47.3,0.4c7.9,0.1,15.7,0.1,23.6,0.2
					c3.2,0,6.3,0,9.5,0.1c2.4,0,4.9,0.5,6.8-1.3c2-1.9,2.7-6.4,3.7-8.9c1.4-3.7,2.8-7.3,4.2-11c3.2-8.5,6.5-17,9.7-25.6
					c3-7.9,6-15.8,9-23.7c1.5-4,5.7-10.7-0.7-12.4c-2-0.5-2.9,2.6-0.9,3.2c2.1,0.5-5.1,17.4-5.8,19.3c-2.3,6.1-4.6,12.2-6.9,18.3
					c-2.3,6.1-4.6,12.2-6.9,18.3c-1,2.7-2.1,5.5-3.1,8.2c-1.1,3-1.9,7.4-3.8,10c-2.4,3.4-7.4,2.3-10.9,2.3c-3.2,0-6.4-0.1-9.6-0.1
					c-6.6-0.1-13.1-0.1-19.7-0.2c-13.1-0.1-26.3-0.2-39.4-0.3c-13.1-0.1-26.3-0.2-39.4-0.3c-1.4,0-3.7,0.6-4.6-0.6
					c-1.2-1.5-0.5,0.7-0.1-2.1c0.4-2.3,2.1-4.9,3-7c2.7-6.3,5.5-12.7,8.2-19c5.3-12.2,10.5-24.3,15.8-36.5c1.2-2.7,2.1-6.9,4-9.1
					c2.5-2.9,6.4-2.1,9.7-2.1c6.8,0.1,13.6,0.1,20.4,0.2c29.9,0.3,59.8,0.6,89.7,0.9C581.3,353.1,581.3,349.9,579.2,349.8z"/>
			</g>
		</g>
		<ellipse class="st10" cx="499.6" cy="393.2" rx="8" ry="5.8"/>
		<ellipse class="st10" cx="515" cy="393.8" rx="4.2" ry="3"/>
	</g>
	<g>
		<path class="st11" d="M319.3,410.1c5.1-0.6,14.2-2,14.4-5.1c-3.3-2.1-7-4.3-10.9-4.5c-3.1-0.2-6.2,1-9.1,2.3
			c-2.4,1.1-4.8,2.3-7.2,3.6c-1,0.5-3.5,2.4-3.5,3.7c-0.1,1.6,2.9,0.7,4.1,0.7C311.2,411.1,315.2,410.6,319.3,410.1z"/>
		<path class="st2" d="M307.2,407.4c0,0,6.8,22.3,10.4,22.8c3.6,0.5,38.8,0.8,39.7,0.4c0.9-0.4,1.1-1.1,1.1-1.1s22.4,1.5,22.8,0.9
			s0-3.2-1.1-3.6s-34.9-8-37.8-9.1s-12.1-0.8-12.1-0.8l-1.9-12.9L307.2,407.4z"/>
		<path class="st12" d="M315.4,128.2c2.2,2.4,3.4,5.6,3.2,8.9c-0.1,1.9-0.7,3.8-1.2,5.6c-1.1,3.5-2.4,7.2-5.2,9.7
			c-0.4,0.4-1,0.8-1.6,0.7c-1.1-3.4-2.2-6.8-3.3-10.2c-0.5-1.6-1.1-3.3-1.4-5c-0.5-2.9-0.3-5.8,0.6-8.6c0.4-1.2,1.1-2.5,2.1-3.3
			C311.3,124.2,313.7,126.4,315.4,128.2z"/>
		<g>
			<g>
				<path class="st13" d="M250.2,316.5c-0.4,3.5,0.2,7.2,0.4,10.6c0.1,2,0.2,4,0.2,5.9c0,1.1-0.3,2.5,0.1,3.6c0,0.1,0.2,0.2,0.3,0.1
					c1.5-1.9,0.7-6.3,0.6-8.6c-0.1-3.9-0.3-7.8-0.5-11.7C251.3,315.8,250.3,315.8,250.2,316.5L250.2,316.5z"/>
			</g>
		</g>
		<g>
			<g>
				<path class="st13" d="M260.1,309.6c-3.7,8.4-5.8,17-10.8,24.8c-0.3,0.4,0.4,0.9,0.7,0.4c4.5-7,9.4-16.7,10.5-25
					C260.6,309.6,260.2,309.4,260.1,309.6L260.1,309.6z"/>
			</g>
		</g>
		<path class="st9" d="M178.8,431.5l2.3-76.9l16.7,76.9h47.9c-3.2-25.6-17.3-132.5-32.1-141.5l-58-36.1c0,0-33.6,8.8-32.8,57.3
			c2.7,46.7,8.4,101.7,10.4,120.4H178.8z"/>
		<path class="st14" d="M333.5,405.1c-1.2,1.9-7.6,0.5-9.5,0.7c-1.7,0.2-3.3,0.8-4.9,1.2c-5.2,1.4-11,0.6-15.6,3.3
			c-0.1,0.1-0.3,0.2-0.5,0.1c-0.2-0.1-0.3-0.2-0.3-0.4c-3-8.2-5.3-16.8-7.9-25.2c-3.9-12.6-7.8-25.2-11.7-37.9c-2-6.5-4-13-6.1-19.6
			l-14.2-65.9l6.3-46.5l1.5-11l0.1-0.8c0,0,0.3,0.1,0.9,0.3c2,0.7,7.1,2.6,12.7,5.4c9,4.4,19.5,11,20.9,18.5c0,0,0,0.1,0,0.1
			c0.8,5.2,1.6,10.5,2.4,15.7c1.5,9.3,2.9,18.6,4.4,27.9c1.8,11.6,3.7,23.1,5.6,34.7c1.9,12,3.9,24.1,5.8,36.1
			c1.7,10.7,3.5,21.5,5.2,32.2c1.2,7.7,2.5,15.3,3.7,23c0.3,2.1,0.7,4.2,1,6.4c0.1,0.4,0.4,1.2,0.3,1.6
			C333.6,404.9,333.6,405,333.5,405.1z"/>
		<path class="st14" d="M270.7,203l-0.1,0.8l-1.5,11l-6.3,46.5c0,0-31,19.1-31,19.1c-1.6,1-3,7.8-3.7,9.6c-2.1,5.6-4,11.4-6.4,16.8
			c-0.5,1.1-0.9,4.2-2.1,4.8c-2.2,1.4-11.3-0.5-14.1-0.7c-10.4-0.7-20.9-2.2-30.4-6.7c-7.5-3.5-14.1-8.5-21.2-12.8
			c-4.3-2.6-9.1-4.3-13.7-6.4c-3.1-1.4-9.6-4.1-10.8-7.7c-0.3-1,0.2-2.1,0.7-3.1c2.2-4.2,3.6-9.3,6.2-13.2c2.4-3.6,5.3-6.9,7.6-10.6
			c4.7-7.5,8.8-15.3,14.6-22c9.9-11.3,18.2-24.2,28.4-35.5c4.5-5,18.6-9.8,25.4-10.1c6.1-0.3,12.1,0.8,17.3,2.2
			c4.2,1.2,7.9,2.6,10.8,4c4.3,1.9,6.9,3.6,6.9,3.6L270.7,203z"/>
		<g id="XMLID_56_">
			<g id="XMLID_66_">
				<path class="st2" d="M282.2,264.9c3.3-2,18.5-11.7,19.9-15.2c0.6-1.6,4.1-6.7,7.1-11.4c1.8-2.8,6.2-8.3,7.4-9.4
					c1.9-2,4.7-7,6.4-5.3c2.1,2-1.2,7.1-3,10.3c-0.7,1.1-1.4,2.3-1.7,3.6c-0.3,1.3-0.2,2.3,0.5,3.4c0.4,0.6,3.3,0.9,4.2,0.8
					c7.2-0.3,10.3,0.1,15.7-1.9s10.4-4.8,15.4-7.5c0.9-0.5,1.4-1.4,3.4-1.6c1-0.1,3,0,2.9,1c-0.1,0.8-6.1,5.5-6.8,5.9
					c-3.4,2.4-3,2.1-6.3,4.5c-0.5,0.4-1.1,0.8-1.2,1.4c-0.1,0.5,0.1,1.1,0.1,1.6c0,1-0.6,1.8-1.3,2.5c-1.1,1.2-2.4,2.4-3.6,3.5
					c-1.8,1.5-0.3,2.8-2.3,4.2c-2.1,1.5-7.7,3-9.9,4.4c-1.8,1.1-3.5,2.2-5.4,3c-2.3,0.9-4.8,1.3-7.2,1.8c-6.7,1.4-18.3,13.5-24,17.5
					"/>
			</g>
			<path id="XMLID_64_" class="st2" d="M320.5,263.5c0,0,8.4-1.1,15.1-4.2c6.7-3.1,23.2-13.3,23.2-13.3s0.2-0.6,0.1-1
				c-0.2-0.4-2.7-1-4.7-0.1s-14.9,6.5-14.9,6.5"/>
			<path id="XMLID_58_" class="st2" d="M318.8,260.7c0,0,10.6-2.2,17.3-5.3c6.7-3.1,23.2-13.3,23.2-13.3s0.2-0.6,0.1-1
				c-0.2-0.4-2.7-1-4.7-0.1c-2,0.9-14.9,6.5-14.9,6.5"/>
			<path id="XMLID_57_" class="st2" d="M322.2,254.6c0,0,10.6-2.2,17.3-5.3c6.7-3.1,17-8.4,22.9-12.4c0.4-0.3,0.5-1.4,0.3-1.8
				c-0.2-0.4-2.7-1-4.7-0.1c-2,0.9-14.9,6.5-14.9,6.5"/>
		</g>
		<path class="st2" d="M282.8,190.9c0,0,25.7,15.7,31.7-16c1.5-13.1,3.3-34.5-7.7-42.8c-10.9-8.3-36.1-9.3-36.7,15.5
			c1,7.1,0.7,7.7,0.7,7.7s-9.4-2.6-7.4,9.2c1.1,5.3,2.5,7.2,2.5,7.2s-19.3,15.1-19.3,15.1c-1.8,1.4-3.3,3.7-5.7,2.6
			c-0.3-0.1-0.5-0.3-0.8-0.3s-0.6,0-0.8,0.3c-0.1,0.2-0.1,0.4-0.1,0.5c0,0.9-0.4,1.8-0.7,2.8c-1,3.5,0,6.8,1.9,9.8
			c1.6,2.6,3.8,4.7,6.4,6.2c2.5,1.4,5.3,2.2,8.2,2.7c3.6,0.6,7.3,0.9,10.9-0.1c2.2-0.6,3.6-1.3,5.1-3c0.3-0.3,0.5-0.7,0.7-1.1
			c0.4-0.9,0.4-1.9,0.4-2.9c0-0.1,0-0.3-0.1-0.4c-0.1-0.1-0.2-0.1-0.4-0.2c-1.6-0.3-0.5-1.1,0.1-1.8c0.7-0.7,1.3-1.4,2-2
			c1.4-1.4,2.8-2.8,4.2-4.2C279.6,194.1,281.2,192.5,282.8,190.9z"/>
		<ellipse class="st6" cx="301.9" cy="161.1" rx="1.8" ry="3.6"/>
		<g>
			<g>
				<path class="st12" d="M305.8,148.8c-3.9-1.4-10.7,0.1-13.2,3.6c-0.2,0.2,0.1,0.6,0.4,0.5c2-0.8,3.6-2,5.7-2.6
					c2.3-0.7,4.6-0.5,6.9-0.6C306.2,149.7,306.3,149,305.8,148.8L305.8,148.8z"/>
			</g>
		</g>
		<path class="st2" d="M315.5,157.9c-0.6,1.9,0,4.1,0.8,5.9c0.8,1.8,2,3.5,3.1,5.1c0.5,0.7,1.1,1.4,1.6,2.2c-1.7,0.5-3.3,1.2-4.8,2
			c-0.9,0.5-1.9,1.1-2.1,2.2"/>
		<path class="st15" d="M303.6,177.1c1.1,0.4,2.3,0.5,3.5,0.4c0.1,0,0.3,0,0.3,0.1c0.1,0.1,0.1,0.1,0.1,0.2c0.1,1.1-0.4,2.2-0.9,3.3
			c-0.3,0.7-0.7,1.4-1.2,2c-1.1,1.2-3.5,2-5,1.3c-0.7-0.3-1.2-1-1.6-1.6c-1.1-1.8-1.8-4.8-0.9-6.8c0.6-1.3,0.8-0.8,1.9-0.3
			c1.1,0.5,2.2,0.9,3.3,1.3C303.3,177,303.5,177.1,303.6,177.1z"/>
		<path class="st14" d="M283.7,259.3c-18.8,8.7-48,24.4-48,24.4l-4.2-30.3l-44.1,0.4c0,0,12.8,70.4,22.6,77c0,0,11.7,8.8,30.6-4.4
			c12.5-8.7,41.6-31.5,55.9-43.9L283.7,259.3z"/>
		<g>
			<g>
				<path class="st16" d="M200.8,310.3c-0.3-4.8-2.6-10.1-3.8-14.8c-1.7-6.6-3.5-13.3-5.1-20c-3-12.1-5.5-24.2-8.1-36.3
					c-0.1-0.4-0.7-0.3-0.6,0.1c1,12.1,4.2,24.2,7.1,35.9c1.6,6.5,3.3,12.9,5.1,19.4c1.4,5,2.4,11.4,5.1,15.8
					C200.4,310.7,200.8,310.6,200.8,310.3L200.8,310.3z"/>
			</g>
		</g>
		<g>
			<g>
				<path class="st16" d="M295.5,280.9c-9.2,6-17.3,14-24.8,21.9c-0.7,0.7,0.4,1.7,1.1,1.1c7.6-8.1,16.1-14.9,24.6-22
					C296.8,281.5,296.1,280.5,295.5,280.9L295.5,280.9z"/>
			</g>
		</g>
		<g>
			<g>
				<path class="st16" d="M264.9,269c3-0.5,6.1-2,8.8-3.3c2.4-1.2,5.5-2.3,7.1-4.5c0.3-0.4-0.2-0.8-0.6-0.7
					c-2.6,0.4-5.1,2.5-7.4,3.7c-2.7,1.4-5.7,2.4-8.3,4C264,268.4,264.3,269.1,264.9,269L264.9,269z"/>
			</g>
		</g>
		<g>
			<g>
				<path class="st13" d="M239.8,188.5c-3.4-3.5-6.7,2.7-7.7,5.6c-2.7,7.6-1.1,16.6,1.1,24.1c2.7,9.1,7.2,17.4,9.6,26.6
					c2.7,10.5,4.7,21,4.3,31.9c0,0.7,1,0.7,1,0c0.9-14.2-2.5-30.1-7.8-43.2c-2.7-6.6-5.7-13-7.3-20c-0.9-3.9-1.5-8.1-1.3-12.1
					c0.1-1.6,2.8-16.7,7.3-12.1C239.5,189.7,240.2,189,239.8,188.5L239.8,188.5z"/>
			</g>
		</g>
		<g>
			<g>
				<path class="st13" d="M273.6,201.6c0.9,1.4,1.7,2.9,2.6,4.3c0.2,1,0.3,1.9,0.5,2.9c0.1,1,0,2.1,0,3.2c-0.2,2.9-0.9,5.7-1.4,8.5
					c-0.9,5.4-1.6,10.9-2.5,16.3c-1.8,10.5-4.2,20.8-7.6,30.9c-0.2,0.6,0.7,0.8,0.9,0.2c4.7-13.5,7.3-27.4,9.4-41.5
					c1-6.5,6.5-22.1-2.2-25.4c-0.4-0.1-0.7,0.3-0.6,0.6c0,0.1,0.1,0.2,0.1,0.3C272.8,202.2,273.5,202.1,273.6,201.6L273.6,201.6z"/>
			</g>
		</g>
		<path class="st17" d="M261.4,330.4c0-0.9-0.8-1.8-1.7-1.7c-6.3,0.4-12.6,0.8-18.9,1.3c-1,0.1-1.7,0.7-1.7,1.7
			c-0.3,9.7,0.2,19.5-0.3,29.2c0,0.9,0.8,1.8,1.7,1.7c6.2-0.5,12.4-0.9,18.6-1.4c0.1,0,0.1,0,0.1,0c0.7,0,1.4-0.3,1.5-1.2
			C262.3,350.4,261.3,340,261.4,330.4z"/>
		<g>
			<g>
				<path class="st18" d="M262.6,160.3c-2.8,0.4-5,1.1-7-1.5c-0.8-1-1.5-2.1-2.8-2.6c-0.2-0.1-0.3,0.2-0.2,0.3
					c1.6,1.5,2.8,4,4.9,4.8c1.7,0.6,3.7,0.2,5.3-0.6C262.9,160.6,262.8,160.3,262.6,160.3L262.6,160.3z"/>
			</g>
		</g>
		<circle class="st19" cx="301.5" cy="161.5" r="8.8"/>
		<g>
			<g>
				<path class="st20" d="M310.5,159.2c0.3-0.2,0.5-0.5,0.7-0.7c0.4-0.4,1-0.6,1.5-0.7c0.5-0.1,1-0.1,1.5,0.1
					c0.4,0.2,0.5,0.6,0.9,0.8c0.1,0,0.2,0,0.3-0.1c0,0,0.1-0.1,0.1-0.1c0.1-0.1,0.1-0.3,0-0.4c-0.5-1.1-2-1.2-3-1
					c-0.9,0.2-2.5,0.9-2.3,2C310.2,159.2,310.4,159.2,310.5,159.2L310.5,159.2z"/>
			</g>
		</g>
		<g>
			<path class="st12" d="M262.5,145.8c4.5,3.2,32.4-0.7,41.4-4.9c18.3-8.4,20.1-23.2,15.9-26c-0.5-0.3-1.1-0.6-1.7-0.7
				c-1.4-0.2-2.8,0.7-3.9,1.6c0.5-1.7,2.1-9-2.3-11.9c-6-3.9-13.5,2.7-14.7,3.5c-8.5,5.7-13.1,6.7-13.1,6.7s1.5-14.4-10.3-3.3
				c-3.7,3.5-10.6,6.7-14.3,10.2c-3.9,3.7-6.1,9.7-3.8,14.8"/>
		</g>
		<g>
			<path class="st12" d="M275.6,137.1c2.6,2.1,3.7,5.4,4.4,8.6c1.1,4.8,1.6,10,0,14.7c-0.4,1.3,0.1,7.5-0.9,7.4
				c-0.3-0.1-1.1-4.8-2.3-7.2c-1.9-3.7-8.1-4.3-10.4-1.3c-2.8,3.6-1,6.2,0.2,9.8c0.9,2.7,0,6.1-3.3,7c-3.1,0.9-2.2-1.5-3.4-3.6
				c-2.6-4.7-5.4-8.8-7.2-14c-2.8-8.2-5.1-20.8,3.5-26.5c2.2-1.4,9.3-3.2,11.7-2.2"/>
		</g>
		<ellipse class="st0" cx="302.6" cy="162.7" rx="0.8" ry="1"/>
		<g>
			<g>
				<path class="st20" d="M273.5,155.5c1.3,2.5,4.3,3,6.8,3.7c3.7,0.9,7.6,1.6,11.4,1.6c0.7,0,0.6-0.9,0-1c-3.2-0.4-6.5-0.7-9.7-1.4
					c-2.6-0.6-6.2-1.1-8-3.3C273.7,154.8,273.3,155.2,273.5,155.5L273.5,155.5z"/>
			</g>
		</g>
		<g>
			<g>
				<path class="st7" d="M277.5,184.6c1.4,2.6,3.5,5.2,6.2,6.5c0.1,0.1,0.3-0.1,0.1-0.2c-2.1-2.1-4.2-4.1-6-6.5
					C277.7,184.2,277.4,184.4,277.5,184.6L277.5,184.6z"/>
			</g>
		</g>
		<g>
			<g>
				<path class="st12" d="M329.9,153.7c1.3-0.8,2.6-1.6,3.6-2.7c0.1-0.1,0-0.2-0.1-0.2c-1.4,0.5-2.6,1.5-3.8,2.4
					C329.4,153.5,329.6,154,329.9,153.7L329.9,153.7z"/>
			</g>
		</g>
		<g>
			<g>
				<path class="st12" d="M331.8,157.2c0.9-0.2,2.1-0.4,2.9-1c0.2-0.1,0.1-0.5-0.1-0.5c-1-0.1-2.1,0.4-3,0.7
					C331.1,156.6,331.3,157.3,331.8,157.2L331.8,157.2z"/>
			</g>
		</g>
		<g>
			<g>
				<path class="st12" d="M332.1,161.5c0.6-0.2,1.2-0.3,1.8-0.4c0.5-0.1,1-0.1,1.5-0.2c0.1,0,0.2-0.3,0-0.3c-1-0.5-2.4-0.3-3.5,0.2
					C331.5,161,331.6,161.6,332.1,161.5L332.1,161.5z"/>
			</g>
		</g>
		<g>
			<g>
				<path d="M147.1,289.5c-2.5-0.1-2.4,3.9-2.7,5.6c-0.3,2.3-1,5.3,1,7c0.3,0.3,0.8,0.1,0.8-0.4c0-0.1,0-0.2,0-0.3
					c0-0.2-0.3-0.3-0.4-0.3c-0.1,0-0.2,0.1-0.3,0.1c0.2,0.1,0.5,0.1,0.7,0.2c-1.2-1.8-1-3.5-0.8-5.5c0.3-2,0.1-4.7,1.8-6.1
					C147.5,289.8,147.3,289.5,147.1,289.5L147.1,289.5z"/>
			</g>
		</g>
		<g>
			<g>
				<path d="M150,291.5c-1.6,2.6-2,7.5-0.7,10.3c0.2,0.3,0.6,0.1,0.6-0.2c0.1-1.7-0.3-3.3-0.2-5c0.1-1.7,0.6-3.3,0.7-4.9
					C150.5,291.3,150.1,291.3,150,291.5L150,291.5z"/>
			</g>
		</g>
		<g>
			<g>
				<path d="M199.3,312.6c-0.3,1-0.7,2.1-1.1,3.1c-0.4,0.9-1.1,1.7-1.5,2.6c-0.2,0.4,0.3,0.9,0.7,0.5c1.6-1.4,2.4-4.1,2.6-6.1
					C199.9,312.3,199.4,312.3,199.3,312.6L199.3,312.6z"/>
			</g>
		</g>
		<g>
			<g>
				<path d="M201.5,316.2c-0.3,1.1-0.8,2.1-1.4,3.2c-0.2,0.4,0.4,1,0.7,0.6c0.8-1,1.2-2.4,1.3-3.6
					C202.1,315.9,201.6,315.9,201.5,316.2L201.5,316.2z"/>
			</g>
		</g>
		<g>
			<g>
				<path d="M125.8,289.4c3.2,1.9,6.5,3.5,9.6,5.5c2.7,1.7,5.6,3.3,8.9,3.8c0.5,0.1,0.6-0.7,0.1-0.8c-3.8-0.8-6.9-2.6-10.1-4.7
					c-2.5-1.6-5.4-3.8-8.4-4C125.7,289.1,125.6,289.3,125.8,289.4L125.8,289.4z"/>
			</g>
		</g>
		<g>
			<g>
				<path d="M149.6,299.3c8,4.1,15.5,9.3,23.7,13c3.7,1.7,7.7,2.9,11.7,3.7c3.8,0.8,8.3,1.8,12.2,1.4c0.4,0,0.5-0.6,0.1-0.7
					c-4.2-1-8.7-1-12.9-1.9c-4.3-0.9-8.3-2.3-12.2-4.2c-7.6-3.7-14.4-8.9-22.3-12C149.5,298.5,149.3,299.1,149.6,299.3L149.6,299.3z
					"/>
			</g>
		</g>
		<g>
			<g>
				<path d="M185.8,356.2c1.3-1.5,2.6-2.9,4-4.2c0.8-0.7,5.1-4.5,6.4-3.2c0.1,0.1,0.4,0,0.3-0.2c-0.6-2-3.5,0.1-4.4,0.7
					c-2.6,1.7-5,3.9-6.6,6.7C185.4,356.1,185.7,356.3,185.8,356.2L185.8,356.2z"/>
			</g>
		</g>
		<g>
			<g>
				<path d="M176.3,355c-3.9-3.9-9.1-6.5-14.6-6.8c-0.2,0-0.2,0.2,0,0.3c5.4,1.2,10.1,3.2,14.2,6.9
					C176.2,355.7,176.6,355.3,176.3,355L176.3,355z"/>
			</g>
		</g>
		<g>
			<g>
				<path d="M185.4,358.7c4.8,1.7,8.5,4.7,9.6,9.8c0.2-0.2,0.5-0.4,0.7-0.6c-1.2-0.8-2.3-1.8-3.2-2.9c-0.6-0.8-1.1-1.9-1.9-2.6
					c-0.8-0.8-2.1-1.1-3.1-0.4c-0.1,0,0,0.1,0,0.1c2.2-0.8,3.4,2.6,4.4,3.8c0.9,1.1,2,2,3.2,2.9c0.4,0.3,0.8-0.2,0.7-0.6
					c-1-4.9-5.2-9.8-10.5-10.1C185.2,358.2,185.2,358.6,185.4,358.7L185.4,358.7z"/>
			</g>
		</g>
		<g>
			<g>
				<path d="M125.2,321.9c4.9-3,9.3-6.7,12-11.9c0.3-0.6-0.6-1.2-1-0.6c-2.6,5-6.9,8.6-11.6,11.5C124,321.3,124.6,322.3,125.2,321.9
					L125.2,321.9z"/>
			</g>
		</g>
		<g>
			<g>
				<path d="M183.5,316.2c0.3,5,1.1,10,1,15.1c-0.1,5.3-0.8,10.6-2,15.8c-0.1,0.5,0.6,0.7,0.8,0.2c1.2-5.1,1.8-10.3,2-15.6
					c0.1-5.1,0-10.6-1.3-15.6C183.9,315.9,183.5,316,183.5,316.2L183.5,316.2z"/>
			</g>
		</g>
		<g>
			<g>
				<path d="M182.6,349.3c-0.5,0.8-0.6,1.8-0.7,2.8c-0.2,0.8-0.5,1.7-0.2,2.5c0,0.2,0.2,0.2,0.3,0c0.5-0.7,0.5-1.7,0.6-2.6
					c0.2-0.9,0.5-1.8,0.4-2.6C183,349.2,182.7,349.1,182.6,349.3L182.6,349.3z"/>
			</g>
		</g>
		<g>
			<g>
				<path d="M190.6,316.8c-0.1,4,0,8,0.1,12c0,3.7,0.4,7.6,0,11.3c-0.6,6.1-6.6,9.2-8.8,14.6c-0.1,0.4,0.5,0.6,0.6,0.3
					c2.3-5.2,8.1-8.1,9-14c0.6-3.6,0.1-7.5,0.1-11.2c-0.1-4.3,0-8.7-0.3-13C191.3,316.3,190.7,316.3,190.6,316.8L190.6,316.8z"/>
			</g>
		</g>
		<g>
			<g>
				<path class="st11" d="M235.9,201.6c-0.1,7.5,7.8,12.2,14.5,12.8c0.5,0.1,0.6-0.7,0.1-0.9c-3.1-1.2-6.3-1.8-9.1-3.8
					c-2.7-1.9-4.6-4.8-5-8.2C236.4,201.3,235.9,201.3,235.9,201.6L235.9,201.6z"/>
			</g>
		</g>
		<g>
			<g>
				<path class="st11" d="M254.6,214.4c1.1,0.2,2.1,0.2,3.2,0.2c1.1,0,2.1,0.1,3.2-0.3c0.2-0.1,0.2-0.4,0-0.5
					c-1-0.4-2.1-0.3-3.2-0.3c-1.1,0-2.1,0-3.2,0.2C254.3,213.8,254.3,214.3,254.6,214.4L254.6,214.4z"/>
			</g>
		</g>
		<g>
			<g>
				<path class="st11" d="M183.1,241.4c-0.2-1.9-0.8-3.5-2-4.9c-1-1.1-3-2.7-4.5-2.3c-0.3,0.1-0.4,0.5-0.2,0.7
					c0.5,0.4,1.1,0.5,1.8,0.8c0.8,0.4,1.4,0.8,2.1,1.4c1.2,1.1,2.2,2.7,2.4,4.3C182.7,241.7,183.1,241.7,183.1,241.4L183.1,241.4z"
					/>
			</g>
		</g>
		<g>
			<g>
				<path class="st7" d="M275,167.3c0.8-2.7-1.9-8.1-5.2-6.9c-1,0.3-0.3,0.8,0.4,0.6c0.8-0.2,2.3,2.4,2.6,2.9
					c0.6,1.2,0.7,2.5,1.3,3.6C274.2,167.7,274.9,167.5,275,167.3L275,167.3z"/>
			</g>
		</g>
		<g>
			<g>
				<path class="st7" d="M273,163.4c0-0.9-0.8-1.4-1.7-1.3c-0.4,0-0.9,0.2-1.3,0.5c-0.2,0.2-0.5,0.5-0.3,0.8c0.1,0.1,0.5,0,0.6-0.1
					c0.3-0.2,0.5-0.6,0.9-0.4c0.4,0.2,0.6,0.5,0.7,0.9C272.1,164,273,163.7,273,163.4L273,163.4z"/>
			</g>
		</g>
		<g>
			<g>
				<path class="st7" d="M299.4,163.5c0.1,1,0.8,1.7,1.9,1.6c0,0,0.3-0.1,0.3-0.2c-0.3-0.2-0.6-0.4-0.8-0.6c-0.3-0.3-0.6-0.6-0.8-1
					C299.9,163.2,299.4,163.3,299.4,163.5L299.4,163.5z"/>
			</g>
		</g>
		<g>
			<g>
				<path class="st11" d="M229.6,231.4c0.4,10.5,1.7,21,3,31.5c0.7,5.4,1,11.5,2.5,16.5c0.2,0.5,0.9,0.3,0.8-0.2c0,0,0,0,0,0
					c-0.1-0.5-0.9-0.3-0.8,0.2c0,0,0,0,0,0c0.3-0.1,0.5-0.1,0.8-0.2c0.1,0.2,0-0.9,0-1.1c-0.1-1.1-0.3-2.1-0.5-3.2
					c-0.6-4.1-1.1-8.2-1.7-12.3c-1.3-10.4-2.5-20.7-3.5-31.1C230.2,231,229.5,231,229.6,231.4L229.6,231.4z"/>
			</g>
		</g>
		<g>
			<g>
				<path class="st11" d="M247.7,277.4c-4.1,0.9-7.9,2.8-11.7,4.6c-3.9,1.9-8,3.6-11.6,6.1c-0.3,0.2-0.1,0.6,0.2,0.5
					c8.1-2.5,15.6-7.3,23.3-10.7C248.2,277.7,248,277.3,247.7,277.4L247.7,277.4z"/>
			</g>
		</g>
		<g>
			<g>
				<path class="st11" d="M318.5,321.6c-1.1,3.9-1.3,7.7-3,11.5c-1.7,4-4.3,7.1-7,10.5c-0.3,0.4,0.2,0.9,0.6,0.6
					c3.3-2.7,5.7-6.8,7.4-10.7c1.5-3.5,3.1-8.1,2.4-12C318.9,321.3,318.5,321.4,318.5,321.6L318.5,321.6z"/>
			</g>
		</g>
		<g>
			<g>
				<path class="st11" d="M144,286.1c-0.9-3.2-1.7-6.4-1.7-9.7c-0.1-3.4,0.8-6.5,1.3-9.8c0.1-0.4-0.5-0.7-0.7-0.3
					c-3.1,5.8-2.3,14.3,0.5,20.1C143.6,286.7,144.2,286.4,144,286.1L144,286.1z"/>
			</g>
		</g>
		<g>
			<g>
				<path class="st11" d="M153,290.4c-0.8-2-1.6-4-2.2-6c-0.2-0.8-1.1-3.2-0.6-3.8c1.8-0.9,2.8-0.4,3,1.2c0.1,0.7,0.2,1.4,0.1,2.2
					c0,0.3,0.5,0.4,0.6,0.1c0.4-1.8-1.2-7.8-4-5.6c-1.2,1-0.6,3.4-0.3,4.6c0.6,2.6,1.8,5.1,2.9,7.6C152.6,291,153.1,290.7,153,290.4
					L153,290.4z"/>
			</g>
		</g>
		<g>
			<g>
				<path class="st11" d="M172.1,302.3c-2.1-3.4-3.1-6.9-4.2-10.7c-0.1-0.2-0.4-0.2-0.4,0.1c-0.2,3.9,1.8,8,4.2,11
					C171.9,302.8,172.3,302.5,172.1,302.3L172.1,302.3z"/>
			</g>
		</g>
		<g>
			<g>
				<path class="st11" d="M189.2,308.9c3-0.3,6.9-2.5,7.4-5.8c0-0.3-0.3-0.6-0.5-0.3c-0.9,1.1-1.6,2.3-2.7,3.2
					c-1.2,1-2.7,1.8-4.3,2.2C188.8,308.4,188.8,309,189.2,308.9L189.2,308.9z"/>
			</g>
		</g>
		<g>
			<g>
				<path class="st11" d="M189.3,305.6c1.9-0.7,4.3-2.4,4.7-4.6c0-0.3-0.3-0.6-0.5-0.3c-0.7,0.8-1.1,1.7-1.8,2.4
					c-0.8,0.7-1.7,1.3-2.6,1.8C188.6,305,188.9,305.7,189.3,305.6L189.3,305.6z"/>
			</g>
		</g>
		<g>
			<g>
				<path class="st7" d="M298.8,188.8c0.9-0.4,1.5,0.2,2.4,0.5c0.1,0,0.3,0,0.4-0.1c0.2-0.7-0.7-0.9-1.2-1c-0.7-0.1-1.4,0.1-1.9,0.5
					C298.1,188.9,298.6,188.9,298.8,188.8L298.8,188.8z"/>
			</g>
		</g>
	</g>
	<g>
		<g>
			<path class="st14" d="M588.4,144H481.9c-9.1,0-16.8,6.5-18.3,15.5l-9.2,54.1c-1.9,11.3,6.8,21.7,18.3,21.7h0.5l-4.1,22.2
				l20.5-22.2h89.6c9.1,0,16.8-6.5,18.3-15.5l9.2-54.1C608.6,154.3,599.9,144,588.4,144z"/>
			<g class="st21">
				<g>
					<path d="M527.3,164.4c11.3,0.6,22.7,0.8,34.1,1c5.6,0.1,11.2,0.2,16.8,0.4c5.7,0.1,11.6,0.7,17.3,0.2c0.6-0.1,0.8-1,0.2-1.1
						c-5.4-0.7-11-0.4-16.5-0.6c-5.8-0.1-11.5-0.3-17.3-0.4c-11.5-0.3-23.1-0.6-34.6-0.5C526.6,163.4,526.6,164.4,527.3,164.4
						L527.3,164.4z"/>
				</g>
			</g>
			<g class="st21">
				<g>
					<path d="M524.2,178.2c11.1,0.6,22.2,1,33.3,0.9c5.5,0,10.9-0.1,16.4-0.3c5.3-0.2,10.8-0.1,16.1-1c0.7-0.1,0.5-1.3-0.2-1.3
						c-5.4-0.1-11,0.5-16.4,0.7c-5.5,0.2-10.9,0.3-16.4,0.3c-10.9,0-21.9-0.3-32.8-0.9C523.2,176.5,523.2,178.1,524.2,178.2
						L524.2,178.2z"/>
				</g>
			</g>
			<g class="st21">
				<g>
					<path d="M524.3,189.2c10,0.9,20.1,1.9,30.2,2.3c10,0.4,20.2-0.2,30.2-0.6c1.3,0,1.3-2.1,0-2.1c-10,0.4-20.1,1.1-30.2,0.8
						c-10.1-0.3-20.1-1.4-30.2-1.8C523.4,187.9,523.4,189.1,524.3,189.2L524.3,189.2z"/>
				</g>
			</g>
			<g class="st21">
				<g>
					<path d="M473.2,199.4c28.6,2.4,57.4,2.5,86,2.8c6.8,0.1,13.7,0.2,20.5-0.1c1.1,0,1.1-1.7,0-1.7c-13.2-0.3-26.5,0-39.7-0.2
						c-15.4-0.2-30.9-0.4-46.3-0.9c-6.8-0.2-13.6-0.4-20.5-0.8C472.6,198.4,472.6,199.4,473.2,199.4L473.2,199.4z"/>
				</g>
			</g>
			<g class="st21">
				<g>
					<path d="M472,209.2c28.2,2.4,56.7,2.8,85,3.1c6.7,0.1,13.5,0.2,20.3,0c1.1,0,1.1-1.7,0-1.7c-13.2-0.3-26.5-0.1-39.7-0.3
						c-15.1-0.2-30.2-0.6-45.4-1.1c-6.7-0.3-13.5-0.5-20.2-0.8C471.4,208.2,471.4,209.1,472,209.2L472,209.2z"/>
				</g>
			</g>
			<g class="st21">
				<g>
					<path d="M477.4,158.9c-1.3,4.9-1.4,9.9-1.5,14.9c0,2.5,0,5.1-0.2,7.6c-0.2,2.7-1.2,5.2-1.3,7.8c0,0.9,1.3,1.2,1.7,0.5
						c1.1-1.8,1.2-4.1,1.4-6.1c0.3-2.7,0.4-5.4,0.4-8c0-5.4-0.1-10.9,1.4-16.1C479.7,158.2,477.7,157.6,477.4,158.9L477.4,158.9z"/>
				</g>
			</g>
			<g class="st21">
				<g>
					<path d="M479.4,159.6c12.8,0.3,25.6,0.7,38.4,2.1c-0.4-0.5-0.8-1-1.2-1.5c-1.4,9.8-2.2,19.6-2.2,29.5c0,1.9,3,1.9,3,0
						c-0.1-9.7,0.3-19.5,1.6-29.2c0.1-0.7-0.6-1.2-1.2-1.2c-12.7-1.3-25.6-2-38.4-1.2C478.4,158.1,478.4,159.6,479.4,159.6
						L479.4,159.6z"/>
				</g>
			</g>
			<g class="st21">
				<g>
					<path d="M476.6,191.1c6.3-0.7,12.7-1,19.1-0.7c3,0.1,6,0.4,9,0.7c1.8,0.2,3.5,0.5,5.2,0.7c1.5,0.2,2.6,0.6,4,0.1
						c0.7-0.3,1.2-1.3,0.5-1.9c-2-1.8-5.7-1.7-8.4-1.9c-3.3-0.3-6.7-0.5-10-0.6c-6.6-0.1-13.3,0.3-19.8,1.3
						C475,188.9,475.3,191.3,476.6,191.1L476.6,191.1z"/>
				</g>
			</g>
			<g class="st21">
				<g>
					<path d="M482.6,165c-0.5,5.2-0.9,10.3-1.1,15.5c-0.1,1.3,2,1.3,2,0c-0.1-5.2,0-10.3,0.4-15.5C484,164.1,482.7,164.2,482.6,165
						L482.6,165z"/>
				</g>
			</g>
			<g class="st21">
				<g>
					<path d="M482.7,181.5c10.1,0.6,20.3,1.2,30.5,1.2c1.3,0,1.3-1.9,0-2c-10.1-0.6-20.4-0.7-30.5-0.7
						C481.7,180,481.8,181.4,482.7,181.5L482.7,181.5z"/>
				</g>
			</g>
			<g class="st21">
				<g>
					<path d="M487.3,177.2c0.4-1.2,0.8-2.4,1.2-3.6c0.3-1,0.6-3.1,1.4-3.8c2.1-2.2,5,4.5,5.6,5.4c1.2,1.8,3.3,3.1,4.9,0.9
						c1.1-1.5,1.1-3.5,1.9-5.1c0.1-0.8,0.5-1.4,1.4-1.5c0.4,0.5,0.7,0.9,1.1,1.4c0.6,0.8,1.2,1.7,2,2.3c0.8,0.6,1.7,0.8,2.6,0.4
						c1.6-0.7,1.6-2.9,3-3.5c3.2-1.4-2.7-4.8-2.3-1.3c0.1,1.2-1,3.2-2.3,2.6c-0.8-0.4-1.6-1.8-2.2-2.5c-0.8-0.8-1.8-2.1-3.1-1.6
						c-1,0.4-1.2,1.5-1.5,2.4c-0.5,1.2-1,2.5-1.5,3.7c-0.1,1.1-0.6,1.7-1.7,1.7c-0.4-0.5-0.8-1-1.1-1.5c-1.3-1.9-3.1-6.3-6.2-5.8
						c-1.3,0.2-1.8,1.1-2.3,2.2c-1,2.2-1.6,4.7-2.4,7C485.5,177.7,487,178.1,487.3,177.2L487.3,177.2z"/>
				</g>
			</g>
		</g>
		<g>
			<path class="st17" d="M432.6,55.2h-70.2c-6,0-11.1,4.3-12.1,10.2l-6.1,35.6c-1.3,7.5,4.5,14.3,12.1,14.3h0.4l-7,10.2l17.8-10.2
				h59c6,0,11.1-4.3,12.1-10.2l6.1-35.6C445.9,62,440.1,55.2,432.6,55.2z"/>
			<g class="st21">
				<g>
					<path d="M360.6,67.7c12.8,0.7,25.5,0.9,38.3,1.3c6.3,0.2,12.6,0.3,18.9,0.5c6.4,0.2,13,0.8,19.4,0.4c0.6,0,0.6-0.9,0-1
						c-6.2-0.7-12.6-0.5-18.9-0.7c-6.5-0.2-12.9-0.4-19.4-0.5c-12.8-0.4-25.5-0.8-38.3-0.8C360.1,66.8,360.1,67.6,360.6,67.7
						L360.6,67.7z"/>
				</g>
			</g>
			<g class="st21">
				<g>
					<path d="M357.4,76.8c12.3,0.6,24.6,1,36.8,1.1c6,0.1,12,0.1,17.9,0.1c6.3,0,12.7,0.1,18.9-0.4c0.7-0.1,0.7-1.1,0-1.1
						c-6.1-0.2-12.3,0.1-18.4,0.2c-6.1,0-12.3,0-18.4-0.1c-12.3-0.2-24.6-0.5-36.8-1.1C356.5,75.4,356.5,76.7,357.4,76.8L357.4,76.8
						z"/>
				</g>
			</g>
			<g class="st21">
				<g>
					<path d="M355.4,85c23.8,1.8,47.9,2,71.8,1.2c0.9,0,0.9-1.4,0-1.4c-23.9,0.9-47.8,0.4-71.8-0.7C354.9,84.1,354.9,85,355.4,85
						L355.4,85z"/>
				</g>
			</g>
			<g class="st21">
				<g>
					<path d="M353.5,93.9c16.4,1.4,33.1,2.4,49.5,1.8c0.7,0,0.7-1.1,0-1.1c-16.5-0.3-33-0.4-49.5-1.3
						C353.1,93.2,353.1,93.8,353.5,93.9L353.5,93.9z"/>
				</g>
			</g>
		</g>
		<g>
			<path class="st17" d="M182.9,75.2h-96c-8.2,0-15.1,5.9-16.5,13.9l-8.3,48.8c-1.7,10.2,6.1,19.5,16.5,19.5h81.2l14.2,17.8
				l0.6-17.8h0.1c8.2,0,15.1-5.9,16.5-13.9l8.3-48.8C201.2,84.5,193.3,75.2,182.9,75.2z"/>
			<g class="st22">
				<g>
					<path d="M121,93.2c11.4,0.5,22.8,0.7,34.2,1c5.6,0.1,11.2,0.3,16.8,0.4c5.7,0.1,11.6,0.6,17.3,0.3c0.5,0,0.5-0.7,0-0.7
						c-5.6-0.5-11.2-0.4-16.8-0.5c-5.8-0.1-11.6-0.3-17.3-0.4c-11.4-0.3-22.8-0.6-34.2-0.7C120.6,92.5,120.6,93.2,121,93.2L121,93.2
						z"/>
				</g>
			</g>
			<g class="st22">
				<g>
					<path d="M118,105.5c10.9,0.6,21.9,0.9,32.9,0.9c10.9,0,22.1,0.2,32.9-1c0.5-0.1,0.5-0.8,0-0.8c-11,0-21.9,0.8-32.9,0.8
						c-11,0-21.9-0.3-32.9-0.9C117.3,104.5,117.3,105.5,118,105.5L118,105.5z"/>
				</g>
			</g>
			<g class="st22">
				<g>
					<path d="M77.4,115.7c32.6,2.4,65.5,2.7,98.2,1.5c0.8,0,0.8-1.3,0-1.2c-32.8,1.2-65.5,0.6-98.2-1.1
						C76.9,114.9,76.9,115.7,77.4,115.7L77.4,115.7z"/>
				</g>
			</g>
			<g class="st22">
				<g>
					<path d="M74.8,127.9c22.5,1.9,45.3,3,67.8,2.3c0.7,0,0.7-1,0-1c-22.6-0.3-45.2-0.5-67.8-1.8C74.4,127.3,74.4,127.9,74.8,127.9
						L74.8,127.9z"/>
				</g>
			</g>
			<g class="st22">
				<g>
					<path d="M80.8,88.2c-0.7,4.7-1.7,9.5-2,14.3c-0.2,2.8,1.2,4.2,3.9,4.7c4.8,0.8,9.7,1,14.5,1.4c2.9,0.3,8.1,1.4,10.5-0.9
						c1.2-1.2,0.9-2.9,0.8-4.4c-0.1-2.1-0.4-4.2-0.4-6.3c0-2.7,0.8-4.8,1.4-7.3c0.3-1.2,0.3-2.3-0.5-3.3c-1.9-2.4-6.6-1.5-9.2-1.5
						c-5.3,0-10.5,0.2-15.8,0.3c-1.6,0-1.6,2.7,0,2.5c6.8-0.8,13.9-1.3,20.7-1c1.5,0.1,3.1,0,3,2.5c0,0.6-0.4,1.3-0.6,1.9
						c-0.4,1.3-0.6,2.7-0.6,4.1c-0.1,1.5,0,3,0.2,4.5c0.1,1.5,0.6,3.4,0.4,5c-0.4,2.7-2.6,3-4.9,3c-1.7,0-3.4-0.3-5.1-0.4
						c-3.5-0.3-6.9-0.6-10.4-0.8c-1.4-0.1-4.1,0.2-5.4-0.5c-0.9-0.5-1.7-2.3-1.7-3.3c-0.1-1,0.3-2.5,0.5-3.5c0.5-3.5,1.1-7,1.6-10.5
						C81.9,87.8,80.9,87.5,80.8,88.2L80.8,88.2z"/>
				</g>
			</g>
			<g class="st22">
				<g>
					<path d="M90.8,99.4c0.4-2.3,0.6-4.6,0.9-7c-0.1,0.2-0.2,0.4-0.4,0.6c0.4-0.3,4.5,4.6,5,5.1c0.1-0.5,0.2-0.9,0.4-1.4
						c-1.8,0.7-3.5,1.4-5.3,2.1c-1,0.4-0.6,2,0.4,1.6c1.8-0.7,3.5-1.5,5.3-2.2c0.6-0.2,0.8-0.9,0.4-1.4c-1.1-1.3-2.3-2.5-3.5-3.7
						c-0.7-0.7-1.7-2.1-2.9-1.8c-1.1,0.2-1,1.4-1,2.3c-0.2,1.8-0.4,3.6-0.4,5.4C89.6,99.8,90.6,100,90.8,99.4L90.8,99.4z"/>
				</g>
			</g>
		</g>
	</g>
	<g>
		<g>
			<circle class="st9" cx="503.6" cy="286.3" r="2.3"/>
			<circle class="st9" cx="511" cy="286.3" r="2.3"/>
			<circle class="st9" cx="518.3" cy="286.3" r="2.3"/>
		</g>
		<g>
			<circle class="st9" cx="512.6" cy="111" r="2.3"/>
			<circle class="st9" cx="520" cy="111" r="2.3"/>
			<circle class="st9" cx="527.3" cy="111" r="2.3"/>
		</g>
		<g>
			<circle class="st9" cx="94" cy="200.3" r="2.3"/>
			<circle class="st9" cx="101.3" cy="200.3" r="2.3"/>
			<circle class="st9" cx="108.7" cy="200.3" r="2.3"/>
		</g>
	</g>
</g>
</svg>
