<?xml version="1.0" encoding="utf-8"?>
<!-- Generator: Adobe Illustrator 25.2.0, SVG Export Plug-In . SVG Version: 6.00 Build 0)  -->
<svg version="1.1" id="Layer_1" xmlns="http://www.w3.org/2000/svg" xmlns:xlink="http://www.w3.org/1999/xlink" x="0px" y="0px"
	 viewBox="0 0 3006.5 2000" style="enable-background:new 0 0 3006.5 2000;" xml:space="preserve">
<style type="text/css">
	.st0{fill:#FFFFFF;}
	.st1{fill:#E2B897;}
	.st2{fill:#F8BD8C;}
	.st3{fill:#31185E;}
	.st4{fill:#2A1656;}
	.st5{fill:#1D1647;}
	.st6{fill:#EAB186;}
	.st7{fill:#1A1A1A;}
	.st8{fill:#FCFCFC;}
	.st9{fill:#666B6D;}
	.st10{fill:#C5A2FD;}
	.st11{fill:#F2B588;}
	.st12{fill:#1B191B;}
	.st13{fill:#9E4AFF;}
	.st14{fill:#2C2A30;}
	.st15{fill:#755FAA;}
	.st16{fill:#FF7C90;}
	.st17{fill:#B08174;}
	.st18{fill:#0B0635;}
	.st19{fill:#CCDDE7;}
	.st20{fill:#DC4070;}
	.st21{fill:#080305;}
	.st22{fill:#231347;}
	.st23{fill:#ABABAB;}
	.st24{fill:#190444;}
	.st25{fill:#8E8D8E;}
	.st26{fill:#D1D1D3;}
	.st27{fill:#999999;}
	.st28{fill:#333333;}
</style>
<rect class="st0" width="3006.5" height="2000"/>
<g>
	<path class="st1" d="M543.6,1836.2h-394l7-193.3l0.2-5.8l0-1.2l324-14.8l46.5-2.1l1.4,18l5.9,79.4l0,0.1l2.2,28.8c0,0,0,0,0,0
		l0.9,12.5L543.6,1836.2z"/>
	<path class="st1" d="M355.8,1836.2H149.5l3.7-196.5l0.1-3.9l3.5,1.2l37.8,13l93.8,32.2c0,0,0,0,0.2,0l62.1,21.3L355.8,1836.2z"/>
	<polygon class="st2" points="396.3,1126.2 283,1139.5 280.3,1063.2 280.1,1058 279.7,1047.9 372.4,1037.1 378.4,1036.4 
		383.5,1061.8 	"/>
	<path class="st3" d="M265.6,1114.5c0,0-132,55-135.6,66c-3.7,11-18.3,42.2-18.3,42.2s64.1,155.8,47.7,208.9
		c-16.5,53.2-5.5,141.1-5.5,168.6c0,27.5-11,38.5,9.2,45.8c20.2,7.3,86.1,3.7,122.8,0c36.7-3.7,111.8,1.1,128.3,4.2
		c16.5,3.1,115.5-13.4,115.5-13.4s12.8-69.6,9.2-104.5c-3.7-34.8,1.3-117.3,0.7-130.1c-0.7-12.8,6.3-18.3,0.1-49.5
		c-6.2-31.2,24.9-201.6,24.9-201.6l-152.1-55.4L265.6,1114.5z"/>
	<g>
		<polygon class="st4" points="334.5,1108 315.5,1171.7 231.8,1129.4 252.1,1108 		"/>
		<path class="st5" d="M316.4,1173.8l-87.1-44l22.1-23.3h85.1L316.4,1173.8z M234.2,1129l80.3,40.5l17.9-60h-79.8L234.2,1129z"/>
	</g>
	<g>
		<polygon class="st4" points="318.2,1108 343.9,1171.7 439.4,1104.4 416.6,1079.8 		"/>
		<path class="st5" d="M343.2,1174l-27-66.9l100.9-28.9l24.6,26.5L343.2,1174z M320.2,1109l24.3,60.3l92.6-65.2l-21-22.7L320.2,1109
			z"/>
	</g>
	<g>
		<path class="st3" d="M177,1153.4c0,0,56.4,21.8,51.2,242.9l205.4-47.1l25.2,104.1c0,0-225.4,97.5-283.9,95.9
			c-58.5-1.6-96.4-268.3-84.3-297.5c12-29.3,15.4-70.9,84.2-97L177,1153.4z"/>
	</g>
	<polygon class="st2" points="444.4,1354.4 497.4,1334.6 484.2,1414.5 442.9,1416.6 433.8,1360 444.4,1354.4 	"/>
	<polygon class="st2" points="279.5,1387.6 236.2,1397.6 234.5,1387.1 231.6,1369.7 234.6,1370.8 279.5,1387.6 	"/>
	<path class="st3" d="M516.4,1164.9l-33.9,241.2l-215.2-28.9l-25.4,106.1c0,0,291.5,70.7,349.1,51.5
		c57.6-19.3,30.5-284.6,15.3-318.3c-15.3-33.8-25.6-60.2-45.9-66.6C540,1143.3,516.4,1164.9,516.4,1164.9L516.4,1164.9z"/>
	<path class="st6" d="M383.5,1061.8c-4.5,10.4-12.4,20-24.6,24.4c-26.9,9.7-60.6-10.5-78.6-23l-0.2-5.2c1.6,0.2,3.3,0.5,5.3,0.6
		c11.9,1,29.6,0.7,51.8-4.9c15.9-4,27.3-10.4,35.2-16.6l6-0.7L383.5,1061.8z"/>
	<path class="st2" d="M396.6,937.9c4.9,62.5-24.6,115.9-70.5,119.5c-45.9,3.6-87.1-44.1-92-106.5c-4.9-62.5,28.2-116.1,74.1-119.7
		C354.1,827.6,391.6,875.5,396.6,937.9z"/>
	<path class="st7" d="M333.9,1075c-43.9,6.5-86.9-38.9-96.2-101.2c-0.9-6-1.4-11.9-1.7-17.8c10.3,60.6,52.6,104.2,95.7,97.9
		c39.6-5.9,66.3-51.9,64.4-106.7c0.2,1,0.4,2.1,0.5,3.1C405.9,1012.6,377.8,1068.4,333.9,1075z"/>
	<path class="st7" d="M268.7,799.8c0,0-0.5,46.4,11,53.1c11.6,6.7,24.8-5.5,35.3-7.3c10.5-1.8,31.7-3.6,46.6,9.3
		c14.9,13,27.7,50.8,27.7,50.8l3.3,12.7c0,0,8.7,2.2,9.6-9.7c0.9-11.9-1.5-61.9,0-66.7c1.5-4.9,0.9-9.8-4.6-15.3
		c-5.5-5.5-12.5-14.1-10.4-17.7c2.1-3.7,11.3-13.1,2.4-21.4c-8.9-8.2-51.6-13.4-59.6-6.1C322.1,788.9,292.5,760.8,268.7,799.8z"/>
	<path class="st7" d="M260.6,803.4c0,0-41.7,4.6-42.6,41.2c0,0-5,8.2-15.1,21.5c-10.1,13.3,1.8,35.7,4.6,49
		c2.7,13.3,8.4,24.3,8.1,28.3c-0.3,4,7.3,11.6,14.2,8.6c6.9-3.1,8.4-11.2,8.4-11.2s0.6-51.7,8.2-60.9c7.6-9.2,20.6-18.2,28.1-22
		c7.5-3.8,9.2-11,9.2-11.9c0-0.9-9.5-51-9.5-51L260.6,803.4z"/>
	<path class="st2" d="M251.4,960.4c5.7,11.8,3.6,24.7-4.7,28.7c-8.3,4.1-19.8-2.2-25.5-14c-5.7-11.8-3.6-24.7,4.7-28.7
		C234.2,942.3,245.7,948.6,251.4,960.4z"/>
	<path class="st2" d="M413.3,944.2c-1.5,13-10.2,22.8-19.4,21.7c-9.2-1.1-15.5-12.5-14-25.5c1.5-13,10.2-22.8,19.4-21.7
		C408.5,919.8,414.8,931.2,413.3,944.2z"/>
	<path class="st7" d="M287.5,920.6c-5.7,0.4-11.7,1.1-17.4,2.3c-5.7,1.2-11.3,2.9-15.6,5.5l-0.2,0.1c-2.2,1.4-5.2,0.7-6.6-1.5
		c-1.4-2.2-0.7-5.1,1.4-6.5c6.1-4,12.4-5.9,18.7-7.4c6.3-1.5,12.4-2.5,18.9-3.1c2.9-0.3,5.5,1.9,5.8,4.8c0.3,2.9-1.9,5.5-4.8,5.8
		c0,0-0.1,0-0.1,0L287.5,920.6z"/>
	<path class="st7" d="M282.6,943.3c0.7,4.6-1.9,8.7-5.7,9.3c-3.8,0.6-7.5-2.7-8.2-7.2c-0.7-4.6,1.9-8.7,5.7-9.3
		C278.3,935.5,282,938.8,282.6,943.3z"/>
	<path class="st7" d="M335.9,914.8c5.6-0.9,11.7-1.6,17.5-1.7c5.8-0.1,11.7,0.2,16.4,1.8l0.2,0.1c2.5,0.8,5.2-0.5,6-3
		c0.8-2.5-0.5-5.1-2.9-6c-6.9-2.5-13.4-2.9-19.9-3c-6.5,0-12.7,0.4-19.2,1.3c-2.9,0.4-5,3.1-4.6,6c0.4,2.9,3.1,5,6,4.6
		c0,0,0.1,0,0.1,0L335.9,914.8z"/>
	<path class="st7" d="M345.8,935.8c0.4,4.6,3.8,8,7.7,7.7c3.9-0.3,6.7-4.3,6.3-8.9c-0.4-4.6-3.8-8-7.7-7.7
		C348.2,927.3,345.4,931.2,345.8,935.8z"/>
	<path class="st7" d="M293.1,1046.4c2.4,1.6,10.8-0.4,13.5-1c4.6-1,9.9-2.7,12.8-6.7c3.3-4.6,1.8-11.5,1.4-16.7
		c-0.1-1.5,0.1-5.6-1.1-6.8c0,0,12.1-1.8,12.2-1.8c-1.1,0.2,2.2,17.2,2.7,18.6c1.4,3.7,5.1,5.8,8.8,6.7c3.8,1,8,1.1,12,0.8
		c1-0.1,10.4-0.9,10.5-1.9c-0.1,0.8-0.7,1.5-1.3,2.1c-6.2,6.3-13,12-19.8,17.6c0,0-32.4,2.7-33.3,1.8
		C310.5,1058.3,293.1,1046.5,293.1,1046.4z"/>
	<path class="st8" d="M353.4,1001.4c-4.3,7.6-13.3,13.9-24.6,16.1c-15.1,2.9-29.2-2.2-34.6-11.7c0-0.1,0.1-0.3,0.3-0.4
		c1.9-1.6,3.9-3,6-4.2l44.4-5.3C348.3,996.6,351.3,997.9,353.4,1001.4z"/>
	<g>
		<path class="st7" d="M290.2,1052.5c-1-9.2-3.6-38.8,0.3-47.6v-0.6l1.3-1.5c2.4-2.1,4.6-3.6,6.9-4.8c7.2-4.2,16.2-6.6,25.8-7
			c5.3-0.2,10.6-0.1,15.6,0.5l1.2,0.2c1.4,0.2,2.8,0.3,4.2,0.6c3.6,0.8,8,2.3,11,7.3c3,5.2,4.3,10.8,5.6,16.3c0.3,1.4,0.7,2.8,1,4.2
			c2.1,8.5,2.8,15.6,2.1,22.5l-7.3-0.7c0.6-6,0-12.4-1.9-20c-0.4-1.4-0.7-2.9-1-4.3c-1.2-5.1-2.3-10-4.8-14.2
			c-1.2-2.1-2.9-3.1-6.2-3.8c-1.2-0.3-2.4-0.4-3.5-0.5l-1.3-0.2c-4.6-0.5-9.5-0.7-14.4-0.5c-8.5,0.3-16.3,2.4-22.5,6
			c-1.8,1-3.5,2.1-5.1,3.5l-0.1,0.1c-2.1,3.3-1.5,25.3,0.4,43.8L290.2,1052.5z"/>
	</g>
	<g>
		<path class="st7" d="M311.2,975.3c-0.4,0-0.7-0.2-0.9-0.5c-0.3-0.5-0.1-1.1,0.4-1.4l7.9-4.2c2.5-1.3,3.9-3.7,3.6-6.2l-4-27.8
			c-0.1-0.5,0.3-1.1,0.8-1.1c0.5-0.1,1.1,0.3,1.1,0.8l4,27.8c0.5,3.2-1.3,6.5-4.6,8.2l-7.9,4.2C311.5,975.3,311.3,975.3,311.2,975.3
			z"/>
	</g>
	<g>
		<path class="st9" d="M356.2,1799.7c-1.1,0-2-0.9-2-2c-0.8-33.1-2.8-86.9-5-92.7c-7.3-4.3-43.2-15.5-61.4-20.9
			c-1.1-0.3-1.7-1.4-1.4-2.5c0.3-1.1,1.4-1.7,2.5-1.4c2.2,0.7,54.3,16.1,62.8,21.6c1.3,0.9,3,1.9,4.9,49.5c1,23,1.5,46,1.5,46.2
			C358.2,1798.8,357.3,1799.7,356.2,1799.7C356.2,1799.7,356.2,1799.7,356.2,1799.7z M349.1,1704.9L349.1,1704.9L349.1,1704.9z"/>
	</g>
	<g>
		<path class="st5" d="M233.6,1399.6c-0.4,0-0.8-0.1-1.2-0.4c-0.5-0.4-0.8-0.9-0.8-1.5c-0.3-6-8.3-100.9-8.4-101.9
			c-0.1-1.1,0.7-2.1,1.8-2.2c1.1-0.1,2.1,0.7,2.2,1.8c0.3,3.6,7.1,83.6,8.2,99.6c11.2-3,59.4-15.8,78.6-19.6
			c1.1-0.2,2.1,0.5,2.4,1.6c0.2,1.1-0.5,2.1-1.6,2.3c-21.6,4.3-80.1,20-80.7,20.2C234,1399.5,233.8,1399.6,233.6,1399.6z"/>
	</g>
	<g>
		<path class="st5" d="M181.2,1547.1c-6.3,0-12.1-0.7-16.9-2.2c-28.7-9.4-48.3-86.5-49.1-89.8c-0.3-1.1,0.4-2.2,1.5-2.4
			c1.1-0.3,2.2,0.4,2.4,1.5c0.2,0.8,19.9,78.2,46.5,87c27,8.8,92.1-14.2,92.8-14.5c1-0.4,2.2,0.2,2.6,1.2c0.4,1-0.2,2.2-1.2,2.6
			C257.4,1531.2,212.6,1547.1,181.2,1547.1z"/>
	</g>
	<g>
		<path class="st5" d="M338,1501.9c-0.7,0-1.4-0.4-1.8-1.1c-0.5-1-0.1-2.2,0.9-2.7l60.9-30.5c1-0.5,2.2-0.1,2.7,0.9
			c0.5,1,0.1,2.2-0.9,2.7l-60.9,30.5C338.6,1501.8,338.3,1501.9,338,1501.9z"/>
	</g>
	<g>
		<path class="st5" d="M480.5,1407.1c-0.1,0-0.2,0-0.3,0c-1.1-0.2-1.8-1.2-1.7-2.3l16.8-104.9c0.2-1.1,1.2-1.8,2.3-1.7
			c1.1,0.2,1.8,1.2,1.7,2.3l-16.8,104.9C482.4,1406.4,481.5,1407.1,480.5,1407.1z"/>
	</g>
	<g>
		<path class="st5" d="M510.1,1536.6c-0.1,0-0.2,0-0.3,0L409,1520.9c-1.1-0.2-1.8-1.2-1.7-2.3c0.2-1.1,1.2-1.8,2.3-1.7l100.8,15.6
			c1.1,0.2,1.8,1.2,1.7,2.3C511.9,1535.8,511.1,1536.6,510.1,1536.6z"/>
	</g>
</g>
<g>
	<g>
		<polygon class="st2" points="1014.7,921.2 996.5,987.6 1035.7,1033.5 1091.7,1005.4 1089.4,935.5 		"/>
	</g>
	<g>
		<polygon class="st3" points="1214.8,1507 1214.8,1836.2 1047.8,1836.2 1047.8,1515.4 1203.8,1507.6 		"/>
	</g>
	<g>
		<path class="st3" d="M1102.1,1522.3l-5.7,15.8l-5.6,15.6l-18.9,52.4l-24,66.5l-38.6,163.6H858.2c0.1,0.5,0.1,0.7,0.1,0.7
			l-20.7,0.5l0.1-1.2l8.3-67l1.2-9.8l3.3-26.3l3.1-24.6l2.3-18.6l10.8-87.1l2.9-23.7l7.1-56.8H1102.1z"/>
	</g>
	<g>
		<path class="st10" d="M1000.8,975.4c0,0-82.1,50.1-118.3,67.7c-36.2,17.6-59.8,43.3-68.2,58.2c-8.3,14.9-27.8,28.4-26.4,37.9
			c1.4,9.5-32,50.1-39,84c-7,33.9-19.5,146.3-19.5,150.3c0,4.1,22.3,97.5,22.3,97.5s65.4,65,79.3,79.9
			c13.9,14.9,55.7,39.3,61.2,39.3c5.6,0,40.3-23,39-46c-1.4-23-11.1-89.4-20.9-100.2c-7.6-8.5-16.9-16.1-24-27.5
			c-2-3.2-3.7-6.6-5.3-10.5c-7-17.6,12.5-59.6,12.5-59.6s62.6-149,59.8-169.3c-2.8-20.3,18.1-92.1,12.5-111.1
			C960.5,1047.2,1000.8,975.4,1000.8,975.4z"/>
	</g>
	<g>
		<path class="st10" d="M1222,1158.2c0,0,13.9,191,12.5,223.5c-1.4,32.5-8.2,51.5,0.1,88c8.2,36.6,4.3,47.4,0,60.9
			s-57.1,12.2-57.1,12.2l-247.7-14.4l-93.1-134.5l121-376.5l43.1-42c0,0,49.4,42,90.4,16.9c0,0,114.1,64.3,130.1,76.5
			C1237.3,1081,1222,1158.2,1222,1158.2z"/>
	</g>
	<g>
		<path class="st10" d="M1223,1073.8c0,0,39.9,39.7,39,65.9c-0.9,26.2,10.2,123.7,8.3,151.7c-1.9,28,2.8,28.9,6.5,49.7
			s19,62.3,20.4,108.3c1.4,46,21.6,79.2,7.7,102.3s-24.3,29.8-24.3,29.8s-3.5-35.1-9.7-38.6s-36.1-12.2-36.1-12.2l-33-364.8
			L1223,1073.8z"/>
	</g>
	<g>
		<path class="st6" d="M1005.7,930.4c-4-9.3,26.7,51.7,58,48.2c26.9-2.9,28-52.6,28-52.6s-9.5,15.7-37.9,15.7
			C1022.2,941.8,1005.7,930.4,1005.7,930.4L1005.7,930.4L1005.7,930.4z"/>
	</g>
	<g>
		<path class="st11" d="M1147.3,851.5c-0.7,13.4-9.6,23.8-19.8,23.3c-10.2-0.6-17.9-11.9-17.2-25.3c0.7-13.4,9.6-23.8,19.8-23.3
			C1140.3,826.8,1148,838.1,1147.3,851.5z"/>
	</g>
	<g>
		<path class="st11" d="M999,843.3c-0.7,13.4-9.6,23.8-19.8,23.3c-10.2-0.6-17.9-11.9-17.2-25.3c0.7-13.4,9.6-23.8,19.8-23.3
			C992,818.6,999.8,829.9,999,843.3z"/>
	</g>
	<g>
		<path class="st2" d="M1139,850.8c-9.7,57-42.8,106.1-88.4,103.6c-45.6-2.5-69.5-44.9-76.7-112.5c-6.3-59.3,42.8-106.1,88.4-103.6
			C1107.8,740.8,1149,792,1139,850.8z"/>
	</g>
	<g>
		<path class="st3" d="M1034.3,760.7c0.1,3.8-0.5,9.8-0.1,11.7c1,5,3.7,9.9,7.9,12.3c3,1.6,6.4,1.9,9.7,1.9
			c12.1,0.3,24.8-4.9,36.4-4.4c5.3,0.2,9.4,4.1,13.9,7.2c8.4,5.6,23.9,4.3,23.9,4.3c7.9,11.1,8.7,27.6,16.8,37.8
			c1.9-1.2,3.7-2.8,5.5-4.3c10.9-9.1,11.5-10.8,8-25.1c-2.8-11.5,4.9-16.4,8.8-25.6c5.4-12.6,14.7-24.3,5.2-34.1
			c-12.4-12.8-21.3-23-29.2-39.8c-4.4-9.3-10.3-19.5-19.9-21.3c-15.5-2.9-27.4,14.2-43,3.8c-5.7-3.8-11.2-8.7-17.8-9.5
			c-6.9-0.9-13.7,2.8-19.3,7.2c-7,5.5-13.4,12.1-21.6,15.6c-13.5,5.9-29.1,8.2-40.2,19.2c-7.4,7.3-11.5,17.3-15.3,27.1
			c-3.2,8.3-8.8,17.9-9.6,26.8c-0.9,10.1,4.9,31.6,12.9,38c3.8,3.1,6.7,10.4,6.7,10.4s12.3-22.6,14.3-27.7
			c2.1-5.1,12.1-18.5,19.1-23.3c6.9-4.9,9.3-6.7,14.8-9.2C1025.8,758,1034.1,754,1034.3,760.7z"/>
	</g>
	<g>
		<path class="st12" d="M1019.2,839.5c-0.2,4-3.6,7-7.6,6.8c-4-0.2-7-3.6-6.8-7.6c0.2-4,3.6-7,7.6-6.8
			C1016.3,832.1,1019.4,835.5,1019.2,839.5z"/>
	</g>
	<g>
		<path class="st12" d="M1104.9,844.1c-0.2,4-3.6,7-7.6,6.8c-4-0.2-7-3.6-6.8-7.6c0.2-4,3.6-7,7.6-6.8
			C1102,836.8,1105.1,840.1,1104.9,844.1z"/>
	</g>
	<g>
		<g>
			<path class="st3" d="M994.7,818.8c-1.9,0-3.6-1.1-4.4-3c-1-2.4,0.1-5.3,2.6-6.3c23.2-9.7,40.7-0.4,41.4,0
				c2.3,1.3,3.2,4.2,1.9,6.5c-1.3,2.3-4.2,3.2-6.5,2c-0.7-0.4-14.4-7.4-33.2,0.4C996,818.7,995.4,818.8,994.7,818.8z"/>
		</g>
	</g>
	<g>
		<g>
			<path class="st3" d="M1081.9,821.9c-1.9-0.1-3.6-1.4-4.2-3.2c-0.9-2.5,0.5-5.3,3-6.1c23.7-8.2,40.6,2.2,41.3,2.6
				c2.3,1.4,2.9,4.4,1.5,6.6c-1.4,2.2-4.4,2.9-6.6,1.5c-0.6-0.4-14-8.3-33.1-1.7C1083.2,821.8,1082.6,821.9,1081.9,821.9z"/>
		</g>
	</g>
	<g>
		<path class="st12" d="M1141.7,830C1141.7,830,1141.7,830,1141.7,830c-0.2-1.1-0.7-2-1.4-2.7c-0.2-0.2-0.4-0.3-0.6-0.5c0,0,0,0,0,0
			c-0.4-0.3-0.8-0.5-1.2-0.7c-1.7-0.6-4-1.4-7.1-2.1c-1.8-0.4-4.7-1-8.3-1.5c-3.5-0.6-7.5-1.1-11.9-1.6h0
			c-6.3-0.7-13.1-1.2-19.5-1.2h0c-3.5,0-6.8,0.2-9.9,0.5c-1,0.1-1.9,0.3-2.8,0.4c-11.5,1.8-12,4.6-11.9,6.2c0,0.3-0.2,0.4-0.5,0.3
			c-2.4-1.5-5.2-2.1-8-2.3c-2.8-0.1-5.7,0.2-8.2,1.4c-0.2,0.1-0.5-0.1-0.4-0.3c0.3-1.7,0-4.9-14-8.1c-0.3-0.1-0.5-0.1-0.8-0.2
			c-3.6-0.8-7.6-1.3-11.7-1.7h0c-4.9-0.4-10-0.6-14.8-0.6h0c-7.1-0.1-13.7,0.2-18.3,0.6c-1.8,0.1-3.2,0.3-4.3,0.4
			c-3.3,0.4-5.9,0.9-7.7,1.4c-1,0.2-1.8,0.8-2.4,1.5l0,0c-0.7,0.8-1.2,1.8-1.2,3c0,0.1,0,0.2,0,0.3c0,1.9,1.1,3.7,2.8,4.5
			c0.7,0.3,1.5,0.8,2.2,1.7c1.8,2.4,2.2,4.4,4.3,5.4c0.1,0,0.2,0.2,0.2,0.3c-0.3,4.7-0.3,12.6,1.6,18.6c1.2,3.8,2.9,6.8,5.3,9.2
			c2.3,2.3,5.3,4,9.1,5.2c3.7,1.2,7.9,1.9,12.1,2.2c4.4,0.2,8.9-0.1,12.6-1c8.1-2,14.3-7.7,17.3-16.2c2.8-7.7,3.9-15.3,3.7-19.8
			c0.6,0.2,1.2,0.1,1.8-0.4l0.1,0c0.1-0.1,0.3-0.2,0.4-0.3c1-0.9,4.1-3.2,10.2-2.8c6.1,0.3,8.9,2.9,9.8,3.9c0.1,0.1,0,0.3,0.1,0.4
			h-0.2c0.4,0.4,1.1,0.7,1.6,0.7c0.2,0,0.3,0.1,0.3,0.3c-0.6,4.5-0.1,12,1.8,19.7c2.1,8.8,7.7,15.2,15.5,18c3.6,1.3,8,2.1,12.4,2.3
			c4.2,0.2,8.5,0,12.3-0.8c2.4-0.5,4.5-1.2,6.3-2.2c4.4-2.2,7.4-5.6,9.6-10.7c2.5-5.8,3.3-13.7,3.5-18.4c0-0.1,0.1-0.2,0.2-0.3
			c2.2-0.8,2.7-2.7,4.7-4.9c0.7-0.8,1.4-1.2,2.1-1.4c0.8-0.3,1.5-0.8,2-1.4c0.5-0.5,0.8-1.1,1-1.8c0.1-0.4,0.2-0.8,0.3-1.3
			c0-0.1,0-0.2,0-0.3C1141.7,830.5,1141.7,830.2,1141.7,830z M1040.5,851.5c-2.9,8-8.6,13.4-16.1,15.2c-7,1.7-16.5,1.2-23.7-1.1
			c-3.5-1.2-6.3-2.7-8.5-4.9c-2.2-2.2-3.7-4.9-4.8-8.5c-2-6.5-1.7-15.5-1.3-19.6v0c0.6-2.6,2.2-7.5,5.6-10.1c0.5-0.4,1-0.7,1.6-0.9
			c6.1-2.7,18.9-4,31.4-1.2c12.6,2.7,17.3,6.1,19.1,9.8c0.1,0.1,0.1,0.3,0.2,0.4C1044.8,833.8,1043.7,842.7,1040.5,851.5z
			 M1129.8,840.3c0,4.1-0.7,13.1-3.4,19.4c-2.1,4.9-5,8.1-9.3,10.1c-1.6,0.7-3.4,1.3-5.4,1.7c-7.4,1.6-16.9,1-23.7-1.4
			c-7.3-2.6-12.4-8.6-14.4-16.8c-2.2-9.1-2.3-18-1.2-21.3c0.1-0.1,0.2-0.2,0.2-0.4c2.2-3.5,7.3-6.3,20.1-7.6
			c11.9-1.3,23.6,0.9,29.8,3.9c0.5,0.2,0.9,0.5,1.3,0.7C1128.1,831,1129.4,837.3,1129.8,840.3L1129.8,840.3z"/>
	</g>
	<g>
		<path d="M1051.2,914.7c-8.9,0-15.1-4.1-15.2-4.2c-0.3-0.2-0.4-0.7-0.2-1c0.2-0.3,0.7-0.4,1-0.2c0.6,0.4,15.1,10.1,32.1-2.2
			c0.3-0.2,0.8-0.2,1,0.2c0.2,0.3,0.2,0.8-0.2,1C1063.1,913.2,1056.6,914.7,1051.2,914.7z"/>
	</g>
	<g>
		<path d="M1053,887.1c-0.1,0-0.3,0-0.4-0.1c-0.1-0.1-3.6-2.3-3.9-5.1c-0.3-2.5,0.8-15.1,0.8-15.6c0-0.4,0.4-0.7,0.8-0.7
			c0.4,0,0.7,0.4,0.7,0.8c-0.4,4.5-1,13.4-0.8,15.3c0.2,1.7,2.4,3.5,3.2,4c0.3,0.2,0.5,0.7,0.2,1
			C1053.5,887,1053.3,887.1,1053,887.1z"/>
	</g>
	<g>
		<path class="st13" d="M873.4,1260.5c-0.3,0-0.6-0.1-0.9-0.2c-1-0.5-1.4-1.7-1-2.7c2.2-4.6,20.4-59.2,20.7-63.4
			c0.1-1.1,1-1.9,2.1-1.8c1.1,0.1,1.9,1,1.8,2.1c-0.4,5-19.1,60.7-21.1,64.8C874.8,1260,874.1,1260.5,873.4,1260.5z"/>
	</g>
	<g>
		<path class="st13" d="M1064,1002.8c-7.8,0-17.2-1.4-28.2-5.5c-1.5-0.5-21.8-10.9-25.9-13c-1-0.5-1.4-1.7-0.9-2.7
			c0.5-1,1.7-1.4,2.7-0.9c9.2,4.7,24.2,12.3,25.4,12.8c35.6,13,52.6-2.6,52.8-2.7c0.8-0.8,2.1-0.7,2.8,0.1c0.8,0.8,0.7,2.1-0.1,2.8
			C1092.1,994.3,1082.9,1002.8,1064,1002.8z"/>
	</g>
	<g>
		<path class="st13" d="M1047.8,1674.6c-0.2,0-0.5,0-0.7-0.1c-1-0.4-1.6-1.5-1.2-2.6l24-66.5c0.4-1,1.5-1.6,2.6-1.2
			c1,0.4,1.6,1.5,1.2,2.6l-24,66.5C1049.4,1674.1,1048.6,1674.6,1047.8,1674.6z"/>
	</g>
</g>
<g>
	<g>
		<g>
			<g>
				<polygon class="st2" points="1747.2,1049.3 1627.5,1051.4 1635.9,953.6 1736.6,953.6 				"/>
			</g>
			<g>
				<path class="st7" d="M1771.5,880.8c0,63.9-38.5,115.7-85.9,115.7s-85.9-51.8-85.9-115.7c0-26.5-6.4-67.2,4.8-86.7
					c15.7-27.5,53.4-29,81.2-29c27.6,0,60.3-6.4,76,20.8C1772.8,805.5,1771.5,854,1771.5,880.8z"/>
			</g>
			<g>
				<path class="st7" d="M1784.5,832.1c0,0,9.2-89.7-4.9-104.5c-14.1-14.8-6.2-19.1-21.5-23.3c-15.2-4.2-15.4-12-40.5-12
					c-4.3,0-6.4-2.8-30.4-2.8c-7.8,0-20.4-6.4-38.4,3.5c-18,9.9-29.4-3.9-42.4,12.8c-13,16.7-17.9,7.7-29.2,33.8
					c-11.3,26.1,3.5,38.8,6.3,67.1c2.8,28.2,17.6,50.8,17.6,50.8l179.3-5.8L1784.5,832.1z"/>
			</g>
			<g>
				<path class="st2" d="M1771.5,862c0,63.9-38.5,115.7-85.9,115.7s-85.9-51.8-85.9-115.7c0-26.5-6.4-67.2,4.8-86.7
					c15.7-27.5,53.4-29,81.2-29c27.6,0,60.3-6.4,76,20.8C1772.8,786.7,1771.5,835.3,1771.5,862z"/>
			</g>
			<g>
				<path class="st2" d="M1617.1,868.5c1.1,13.6-5.1,25.2-13.8,25.9c-8.7,0.7-16.7-9.7-17.8-23.3c-1.1-13.6,5.1-25.2,13.8-25.9
					C1608,844.5,1615.9,854.9,1617.1,868.5z"/>
			</g>
			<g>
				<path class="st2" d="M1752.5,867.5c-2,13.5,3.5,25.4,12.1,26.7c8.7,1.3,17.3-8.6,19.3-22.1c2-13.5-3.5-25.4-12.1-26.7
					C1763.1,844.1,1754.4,854,1752.5,867.5z"/>
			</g>
			<g>
				<path class="st7" d="M1660,804c-2.1-0.1-3.9,0-5.8,0.1c-1.9,0.1-3.8,0.2-5.7,0.4c-3.8,0.4-7.5,0.9-11.3,1.6
					c-3.8,0.8-7.5,1.7-11.2,3c-3.7,1.3-7.3,3-10.7,5.1c-1.6,1-2.4,3-1.9,5c0.7,2.4,3.1,3.7,5.5,3.1l0.2-0.1c3.2-0.9,6.4-1.6,9.8-2.2
					c3.3-0.6,6.7-1,10.2-1.4c3.4-0.3,6.9-0.6,10.4-0.7c1.7-0.1,3.5-0.1,5.2-0.2c1.7-0.1,3.5-0.1,5.1-0.1l0.2,0
					c3.6-0.1,6.5-2.9,6.6-6.5C1666.6,807.3,1663.7,804.2,1660,804z"/>
			</g>
			<g>
				<path class="st7" d="M1749.7,814.2c-3.4-2.2-7-3.8-10.7-5.1c-3.7-1.3-7.4-2.2-11.2-3c-3.8-0.7-7.5-1.3-11.3-1.6
					c-1.9-0.2-3.8-0.3-5.7-0.4c-1.9-0.1-3.7-0.1-5.8-0.1c-3.6,0.1-6.5,3-6.5,6.6c-0.1,3.7,2.9,6.8,6.6,6.9l0.2,0
					c1.6,0,3.4,0,5.1,0.1c1.7,0.1,3.5,0.1,5.2,0.2c3.5,0.2,6.9,0.4,10.4,0.7c3.4,0.4,6.8,0.8,10.2,1.4c3.3,0.6,6.6,1.3,9.8,2.2
					l0.2,0.1c1.8,0.5,3.9-0.2,5-1.9C1752.4,818.3,1751.8,815.6,1749.7,814.2z"/>
			</g>
			<g>
				<path class="st7" d="M1648.5,849.8c0,4.3-2.8,7.8-6.3,7.8s-6.3-3.5-6.3-7.8c0-4.3,2.8-7.8,6.3-7.8S1648.5,845.5,1648.5,849.8z"
					/>
			</g>
			<g>
				<path class="st7" d="M1730.2,849.8c0,4.3-2.8,7.8-6.3,7.8s-6.3-3.5-6.3-7.8c0-4.3,2.8-7.8,6.3-7.8S1730.2,845.5,1730.2,849.8z"
					/>
			</g>
			<g>
				<path class="st14" d="M1685.6,897C1685.6,897,1685.6,897,1685.6,897c-0.9,0-9-0.5-10.9-3.1c-0.4-0.5-0.5-1.2-0.3-1.8
					c1.1-3.6,5.2-27.7,5.3-27.9c0-0.3,0.3-0.5,0.6-0.4c0.3,0,0.5,0.3,0.4,0.6c-0.2,1-4.2,24.4-5.3,28.1c-0.1,0.3-0.1,0.7,0.2,1
					c1.3,1.9,7.7,2.5,10.1,2.6c0.3,0,0.5,0.2,0.5,0.5C1686.1,896.8,1685.9,897,1685.6,897z"/>
			</g>
			<g>
				<path class="st7" d="M1589,756.2c0,0,19.2,27.7,37.2,22.8c17.9-4.9,28.1-25.4,36.6-16.1c8.5,9.3,23.2,7.8,34.7,0.5
					s7.7,2.1,22.8,4.4c15.1,2.4,22.4-2.3,33.5,11.7c11.1,14,22.4,7.3,18.6-11.7c-3.8-19-29.4-59.9-52.1-48.2
					C1697.8,731.3,1589,756.2,1589,756.2z"/>
			</g>
			<g>
				<path class="st7" d="M1771.2,822.2c-0.4-0.1-0.7-0.2-1.1-0.3c-5.8-1.3-12.1-2.2-18.5-2.6c-6.5-0.4-13.2-0.4-19.6-0.1
					c0,0,0,0,0,0c-12.4,0.6-23.6,2.5-30.2,4.6c-5.4,1.8-11.7,4.3-17.1,4.3c-5.4,0-11.7-2.5-17.1-4.3c-7.2-2.4-19.8-4.3-33.5-4.8h0
					c0,0,0,0,0,0c-6.7-0.2-13.7-0.1-20.4,0.5c-5.5,0.5-10.7,1.3-15.6,2.5c0,0,0,0,0,0c-1.5,0.4-3,0.8-4.4,1.2l0.7,12.8
					c0,0,1.9-0.4,3.6,0.8c0.3,0.2,0.6,0.5,0.8,0.8c0.5,0.5,0.8,1.2,1.1,2.2c0.3,1.1,0.7,2.9,1.3,5.2c0.8,3.4,1.8,7.9,3.1,12.2
					c1.6,5.3,3.6,10.6,6.1,13.7c1.8,2.2,4,4,6.6,5.3c8,4.1,19,4.2,27.1,3.9c14.3-0.6,23.7-7,27.7-17.8c0.9-2.6,1.8-5,2.6-7.3
					c2.5-7.5,4.3-13.4,6.2-15.6c1.4-1.6,2.9-1.7,4.2-1.7c1.2,0,2.8,0.1,4.2,1.7c1.9,2.2,3.6,7.8,6,15c0.8,2.5,1.8,5.2,2.8,8
					c4,10.8,13.4,17.2,27.7,17.8c8,0.3,18.9,0.2,26.9-3.8c2.6-1.3,4.9-3,6.7-5.3c3.3-4.2,5.8-12,7.5-18.9c0.6-2.4,1.2-4.7,1.6-6.7
					c0.5-2.4,1-4.4,1.3-5.5c0.4-1.2,0.9-2.1,1.6-2.6c0.1-0.1,0.3-0.2,0.4-0.3c1.7-1.2,3.6-0.7,3.6-0.7l0.7-12.8
					C1774.3,823,1772.8,822.6,1771.2,822.2z M1665.2,862.5c-3.8,7.3-10.3,10.9-20,12.2c-9.7,1.2-21.3-0.7-27.1-4.2
					c-0.3-0.2-0.6-0.4-0.9-0.7c-3.2-2.6-5.3-7.9-6.6-12.7c-0.5-1.9-1-3.8-1.3-5.3c-0.2-0.9-0.4-1.9-0.6-3v0
					c-1.1-6.4-1.9-16.1,3.2-19.6c6-4.2,21.1-4.5,31.1-3.9c7.5,0.5,23.9,2.5,26.9,8.3c2.2,4.2,0.5,14.2-1.8,21.7
					C1667.1,858.3,1666.1,860.9,1665.2,862.5z M1760.1,851.9c0,0.2-0.1,0.4-0.1,0.5c-1.2,5.5-3.4,13.8-7.7,17.4
					c-0.3,0.3-0.7,0.5-1,0.7c-5.9,3.5-17.5,5.4-27.1,4.2c-9.7-1.2-16.2-4.9-20-12.2c-1-1.8-2.1-4.8-3.1-8.2
					c-2.1-7.3-3.6-16.6-1.5-20.6c3.1-5.9,19.4-7.9,26.9-8.3c10-0.6,25.1-0.3,31.1,3.9c5.4,3.8,4.2,14.4,3,20.8
					C1760.3,850.7,1760.2,851.3,1760.1,851.9z"/>
			</g>
			<g>
				<g>
					<path class="st1" d="M1870.6,1051.4c0,0,70.9,29.3,85.4,46.5c14.5,17.1,63.7,163.2,63.7,239.9c0,76.7,11.6,194.4,0,216.6
						c-11.6,22.2-63.7,132-98.4,157.4s-48.9,23.5-48.9,23.5l-8.5-114.1l37.2-180.6l-18.9-272.1L1870.6,1051.4z"/>
				</g>
				<g>
					<path class="st15" d="M1683.1,1673.7c-3.6,16.6-8.1,81.8-12.2,153.5c-0.2,3-0.3,6-0.5,9h-179.7c-2-109.1,1.7-213.8,1.7-213.8
						s1.7,0.1,4.7,0.3c1.6,0.1,3.5,0.2,5.7,0.4c0.2,0,0.4,0,0.7,0c0,0,0.1,0,0.1,0c16.3,1.1,48.2,3.7,80.6,8.5
						c16.9,2.5,34,5.6,49.2,9.5c21.2,5.4,38.5,12.1,46,20.6c0.5,0.6,1,1.2,1.4,1.8v0c0.3,0.4,0.5,0.8,0.8,1.2
						C1683.2,1667.5,1683.8,1670.5,1683.1,1673.7z"/>
				</g>
				<g>
					<polygon class="st15" points="1872.2,1641 1872.2,1836.2 1673.3,1836.2 1671.6,1828.5 1670.9,1827.2 1631.8,1755.3 
						1586.9,1674 1579.5,1660.6 1578.7,1659.1 1568.7,1641 					"/>
				</g>
				<g>
					<path class="st16" d="M1627.5,1001.6h119.7l15.5,28l107.9,21.5c0,0,71.9,34.5,74,40.1c2.1,5.6,27.5,294.7,16.9,365.6
						c-10.6,70.9-4.2,149.2-14.8,184.7c-10.6,35.4-437.8,14.9-437.8,14.9s-86.7-526-59.2-550.3s165.7-61.9,170.3-70
						C1624.5,1028,1627.5,1001.6,1627.5,1001.6z"/>
				</g>
				<g>
					<path class="st1" d="M1961.5,1459.7c-10.6,71.3-4.2,150.2-14.8,185.9c-3.8,12.8-59.7,30.3-132.2,32.1
						c-54.9,1.4-119.1-14.8-173.6-16.1c-4.1-0.1-8.2-0.2-12.2-0.3c-67.6-1.4-119.8-0.7-119.8-0.7s-86.7-529.5-59.2-553.9
						c24.1-21.4,133.4-53.2,163-66.1l85.8,151.4l74.9-160.1l97.3,19.5c0,0,71.9,34.7,74,40.4S1972.1,1388.4,1961.5,1459.7z"/>
				</g>
				<g>
					<path class="st17" d="M1870.1,1371c-1.1,0-2-0.9-2-2l-1.3-90.7c-0.2-11.3-5.1-45.7-5.1-46c-0.2-1.1,0.6-2.1,1.7-2.3
						c1.1-0.2,2.1,0.6,2.3,1.7c0.2,1.4,5,35,5.1,46.5l1.3,90.7C1872.2,1370.1,1871.3,1371,1870.1,1371
						C1870.2,1371,1870.1,1371,1870.1,1371z"/>
				</g>
			</g>
			<g>
				<path class="st0" d="M1656,926.2c1.9,9.8,15.3,16.7,30.7,15.6c13.4-1,24-7.7,26.5-15.9L1656,926.2z"/>
			</g>
		</g>
		<g>
			<path class="st17" d="M1699.6,1194.1c-0.7,0-1.4-0.4-1.7-1l-40.8-72c-0.5-1-0.2-2.2,0.8-2.7c1-0.5,2.2-0.2,2.7,0.8l38.9,68.6
				l48.3-103.2c0.5-1,1.7-1.4,2.7-1c1,0.5,1.4,1.7,1,2.7l-49.9,106.7C1701.1,1193.7,1700.4,1194.1,1699.6,1194.1
				C1699.6,1194.1,1699.6,1194.1,1699.6,1194.1z"/>
		</g>
		<g>
			<path class="st5" d="M1803.5,1679.7c-23.5,0-51.8-1.8-81.8-7.7c-74.6-14.6-125.3-10.1-125.9-10c-1.1,0.1-2.1-0.7-2.2-1.8
				s0.7-2.1,1.8-2.2c0.5,0,51.8-4.7,127,10.1c76.5,15,142.8,3.1,143.3,3c1.1-0.2,2.2,0.4,2.4,1.5c0.2,1.1-0.4,2.1-1.5,2.4
				C1866.4,1675.1,1841.1,1679.7,1803.5,1679.7z"/>
		</g>
	</g>
	<g>
		<path class="st5" d="M1698.8,1792.8c-1.1,0-2-0.9-2-2v-54c0-0.1,0-0.3,0-0.4l6.3-29.9c0.2-1.1,1.3-1.8,2.4-1.5
			c1.1,0.2,1.8,1.3,1.5,2.4l-6.3,29.7v53.8C1700.8,1791.9,1699.9,1792.8,1698.8,1792.8z"/>
	</g>
</g>
<g>
	<g>
		<g>
			<path class="st18" d="M713.2,957.3c0,0,24.8-9.2,47.2,2.3c23.8,12.2,36,24.4,41.4,126.7c5.5,102.4,4.9,153.6,5.5,161.5
				c0.6,7.9-195,5.5-195,5.5V998.5L713.2,957.3z"/>
		</g>
		<g>
			<path class="st8" d="M614.4,1248.8c0,0-99.6,10.8-97.7,182.5c1.9,171.6-34.7,159.6-4.8,281.8c0,0,67.7,13.7,106.4-14l-3.9-337.5
				V1248.8L614.4,1248.8z"/>
		</g>
		<g>
			<path class="st16" d="M857.2,1837.4l0.1-1.2H537.9c3.2-19.1,10.5-47.3,19.5-78.4c0.8-2.9,1.7-5.8,2.5-8.7l0-0.2
				c3.2-10.8,6.5-21.8,9.9-32.9l0.2-0.5c15.5-50.4,32.4-101,41.7-128.3c0,0,0,0,0,0c2.2-6.4,3.9-11.5,5.2-15.1v0
				c1.2-3.5,1.9-5.4,1.9-5.4h207.8c0.6,1.7,1.7,6.2,3.1,12.8v0c0.4,1.6,0.7,3.4,1.1,5.3c4.1,19.8,10.4,52.8,17.1,88.6c0,0,0,0,0,0
				c0.5,2.8,1,5.5,1.6,8.4c3,16.1,6,32.5,8.9,48.3c0.3,1.9,0.7,3.7,1,5.5c0.7,4,1.5,7.9,2.2,11.8c0.1,0.3,0.1,0.7,0.2,1
				c0.7,3.6,1.3,7.2,2,10.8c0.6,3.4,1.2,6.7,1.8,10c6.4,35.4,11.3,62.4,12.1,67c0.1,0.5,0.1,0.7,0.1,0.7L857.2,1837.4z"/>
		</g>
		<g>
			<path class="st8" d="M619,1252.7c0,0-45.2,13.1-39.1,108c6.1,94.9-45.1,212.6,28.6,226.3l203.2-2.5c19.2-0.2,34.6-15.8,34.6-35
				v-299l-42.6-7.4L619,1252.7L619,1252.7z"/>
		</g>
		<g>
			<polygon class="st2" points="743.3,1218.5 669.8,1220.7 672.3,1157.6 739.6,1157.6 			"/>
		</g>
		<g>
			<path class="st8" d="M663.4,1209.2h93.9c6.1,0,11.3,4.5,12.5,10.8l5.3,27.1l-129.1,5l4.8-31.5
				C651.8,1214,657.1,1209.2,663.4,1209.2z"/>
		</g>
		<g>
			<path class="st6" d="M741,1180.4c-4.2,8.9-11.8,17.7-22.7,18.9c-18.7,2.1-37-18.7-46-30.2c-1.8-2.3-2.7-4.2-3.7-5.5
				c1.5,0.9,3.9,2.5,8.3,4.1c7.2,2.7,18.3,5.5,33,5.5c10.7,0,18.8-2.6,24.7-5.5l5.7-0.1L741,1180.4z"/>
		</g>
		<g>
			<g>
				<path class="st2" d="M772.6,1083.4c1.6,50.8-28.7,92.9-67.6,94.1s-71.7-38.9-73.3-89.7c-1.6-50.8,28.7-92.9,67.6-94.1
					C738.2,992.5,771,1032.7,772.6,1083.4z"/>
			</g>
		</g>
		<g>
			<path class="st2" d="M788.7,1089c0,10.5-9.1,20.7-16.6,20.7c-7.5,0-13.6-8.5-13.6-19s10-19,17.5-19
				C783.4,1071.6,788.7,1078.5,788.7,1089z"/>
		</g>
		<g>
			<g>
				<path d="M746.7,1056.1c-0.6,0-1.1-0.1-1.7-0.3c-15.1-5-25.1-0.5-25.5-0.3c-2.7,1.3-6,0.1-7.3-2.6c-1.3-2.7-0.2-6,2.5-7.3
					c0.6-0.3,14.1-6.7,33.7-0.3c2.9,0.9,4.4,4,3.5,6.9C751.1,1054.7,749,1056.1,746.7,1056.1z"/>
			</g>
		</g>
		<g>
			<g>
				<path d="M641.6,1064.8c-1.8,0-3.5-0.8-4.5-2.4c-1.7-2.5-1.1-5.9,1.4-7.6c0.5-0.4,12.9-8.8,33.2-5.4c3,0.5,5,3.3,4.5,6.3
					c-0.5,3-3.3,5-6.3,4.5c-15.7-2.6-24.9,3.4-25.2,3.6C643.7,1064.5,642.6,1064.8,641.6,1064.8z"/>
			</g>
		</g>
		<g>
			<g>
				<path d="M701.9,1108.1h-5.5c-0.5,0-0.9-0.4-0.9-0.9v-20.6c0-0.5,0.4-0.9,0.9-0.9s0.9,0.4,0.9,0.9v19.7h4.6
					c0.5,0,0.9,0.4,0.9,0.9C702.8,1107.7,702.4,1108.1,701.9,1108.1z"/>
			</g>
		</g>
		<g>
			<path d="M667.1,1082.1c0,4.2-2.7,7.7-6.1,7.7c-3.4,0-6.1-3.4-6.1-7.7s2.7-7.7,6.1-7.7C664.4,1074.5,667.1,1077.9,667.1,1082.1z"
				/>
		</g>
		<g>
			<path d="M738,1074.5c0,4.2-2.7,7.7-6.1,7.7c-3.4,0-6.1-3.4-6.1-7.7c0-4.2,2.7-7.7,6.1-7.7C735.2,1066.8,738,1070.3,738,1074.5z"
				/>
		</g>
		<g>
			<path class="st8" d="M680,1133.5c2.1,9.4,13.1,15.5,25.4,13.8c10.6-1.5,18.8-8.5,20.3-16.6L680,1133.5z"/>
		</g>
		<g>
			<path class="st18" d="M711.3,955.3c19.1,38.4-27,52.1-44.5,72.9c-19.1,22.7-32.3,67.5-31.3,97.3c2.8,81.4,30.3,146.6-23.3,221.1
				c11.1-45.2-5.8-79.8-19.9-120.8c-15.5-45.1-15.2-91.4-9.9-138.3c4-35.3,5.3-92.5,31.9-119.2C629.6,952.9,699.1,930.8,711.3,955.3
				z"/>
		</g>
		<g>
			<path class="st18" d="M706.9,994c0,0,8.6,15,27.7,24.3c27.1,13.1,32.9,56.2,32.9,56.2l11-6l-21.3-80.2L706.9,994z"/>
		</g>
		<g>
			<path class="st2" d="M863.9,1748.2l-13.5-4.4c0,0-1.7-2.4,0.2-5.4c1.9-3.1,6.3-3,8.4-2.7c2.2,0.2,6.6,1.9,6.6,1.9
				s5.3-6.1,10.7-8.8c0,0-1.4-7.4,1.1-12.3c0,0-5.6-5.7-4.9-14c0,0-0.6-1-1.4-2.6c-0.7,0.3-2.1,0.9-3,1.4c-1.2,0.7-1.3,4.7-0.9,7.1
				c0.5,2.4,1,10.1,0.3,14.5c-0.8,4.4-4.1,7.4-9.1,7.2c-5-0.2-5.2-5.1-6.1-9.4c-1-4.3-0.6-8.4-0.2-16.2c0.3-7.8-1.7-11.7-3.2-19.1
				c-1.5-7.4-0.9-13.3-0.9-13.3c0.7-6.2,3.1-13.6,3.8-15.5c-0.7-4.5-0.7-8.6,0.8-11.7c2.5-5.6-5.7-46.4-5.7-46.4l41.7,4.7l-3.9,46.2
				c0,0,13.1,27.3,17.4,39.6c4.3,12.3,7.5,18.8,6.9,24.9c0,0-6.3,24.6-12.8,30c-6.7,5.6-21.5,15.3-25.8,15.6
				c-4.7,0.4-17.1-1.3-17.1-1.3s-2.8-0.1-4.8-1.3c0,0-2,0-0.5-4.1C849.4,1748.5,853.7,1749.5,863.9,1748.2z"/>
		</g>
		<g>
			<path class="st8" d="M823.3,1246.3c0,0,58.4-4.2,78.9,77.7c20.6,81.9,18.4,112.6,17.3,164.7c-1.1,52.1,59.7,155.1,4.5,221.4
				c0,0-46.7-23.3-90-32.1c0,0-7.6-8.3-3.2-94.3C835.2,1497.7,823.3,1246.3,823.3,1246.3L823.3,1246.3z"/>
		</g>
		<g>
			<path class="st6" d="M570,1715.4c0,0-17.3,1.1-20.7,1c0,0,0.2,24.2,10.4,32.4l0.2,0.2L570,1715.4z"/>
		</g>
	</g>
	<g>
		<path class="st19" d="M598.5,1542.2c-1,0-1.9-0.8-2-1.8c-0.1-0.8-2-20,2.4-40.1c2.2-10.3,0.7-16.2-1.6-25.2
			c-2.1-8-4.6-17.9-5.7-34.7c-2.3-36.2,11.2-56.6,11.8-57.5c0.6-0.9,1.9-1.2,2.8-0.5c0.9,0.6,1.2,1.9,0.5,2.8
			c-0.2,0.3-13.3,20.3-11.1,55c1,16.4,3.5,26.2,5.5,34c2.4,9.2,4.1,15.8,1.6,27.1c-4.2,19.5-2.3,38.7-2.3,38.9
			c0.1,1.1-0.7,2.1-1.8,2.2C598.6,1542.2,598.5,1542.2,598.5,1542.2z"/>
	</g>
	<g>
		<path class="st19" d="M825,1573c-0.1,0-0.1,0-0.2,0c-1.1-0.1-1.9-1.1-1.8-2.2c1.6-15.8,2.9-30,1.4-44c-0.8-7.4-1.7-14.7-2.6-21.9
			c-2-15.9-4-32.3-4.4-48.9c0-1.1,0.8-2,1.9-2.1c1.1-0.1,2,0.8,2.1,1.9c0.4,16.5,2.3,32,4.4,48.5c0.9,7.2,1.8,14.6,2.6,22
			c1.5,14.4,0.2,28.8-1.4,44.8C826.9,1572.2,826,1573,825,1573z"/>
	</g>
	<g>
		<path class="st20" d="M729.2,1589.1H608.5c-1.1,0-2-0.9-2-2s0.9-2,2-2h120.6c1.1,0,2,0.9,2,2S730.3,1589.1,729.2,1589.1z"/>
	</g>
</g>
<g>
	<g>
		<rect x="2277.9" y="946.2" class="st2" width="99.2" height="89.5"/>
	</g>
	<g>
		<path class="st6" d="M2377.2,953.5v27.8c-7.3,7.4-17.2,13.2-29.7,14.3c-26.8,2.4-53.1-17.5-69.5-32.9v-9.2c0.1,0,0.2,0,0.2,0.1
			c12.1,3.6,30.6,7.4,55.2,7.3c17.8,0,31.5-3.4,41.3-7.3L2377.2,953.5z"/>
	</g>
	<g>
		<path class="st11" d="M2259.8,869.9c1.2,15-4.6,27.6-13.1,28.3c-8.4,0.7-16.3-10.9-17.5-25.8c-1.2-14.9,4.6-27.6,13.1-28.3
			C2250.8,843.4,2258.6,854.9,2259.8,869.9z"/>
	</g>
	<g>
		<path class="st11" d="M2423,873c-1.8,14.9-10,26.2-18.4,25.2c-8.4-1-13.8-13.9-12-28.8c1.8-14.9,10-26.2,18.4-25.2
			C2419.4,845.2,2424.8,858.1,2423,873z"/>
	</g>
	<g>
		<ellipse class="st2" cx="2327" cy="870" rx="80.5" ry="107.4"/>
	</g>
	<g>
		<path class="st1" d="M2307.2,712.3c-2.4,0-24-15.8-51.8,10.5c-27.8,26.4-21.4,21.2-29.1,28.3c-7.7,7-5.8,14.4-16,21
			c-10.2,6.5-12.1,9.7-7.7,17.4c4.5,7.7,7.6,15.3-2.3,20.5c-9.9,5.1-13.7,6.4-8.6,10.9c5.1,4.5,0.8,10.4,12.3,12.3
			c11.5,1.9,17.7,3.1,19.7,8c1.9,4.9,6.2,4.9,12,6.8c5.8,1.9,6.7,2.9,8.6,5.8c1.9,2.9,4,1.9,4,1.9s11.6-28.4,12.2-40.5
			s4.4,0.3,13.5-12.2c9.1-12.5,11-11.4,18.7-21.2c7.7-9.8,3.2-3.7,9.5-10.6C2308.6,764.1,2307.2,712.3,2307.2,712.3z"/>
	</g>
	<g>
		<g>
			<path class="st21" d="M2327.6,902.1c-0.9,0-1.6,0-1.8,0c-0.5,0-0.9-0.5-0.9-1c0-0.5,0.5-1,1-0.9c3.8,0.2,10.4-0.2,11.9-2.1
				c1.5-1.8,0.8-11.8-0.2-18.4c-0.1-0.5,0.3-1,0.8-1.1c0.5-0.1,1,0.3,1.1,0.8c0.4,2.8,2.3,16.9-0.2,19.9
				C2337.2,901.8,2330.9,902.1,2327.6,902.1z"/>
		</g>
	</g>
	<g>
		<path class="st0" d="M2300.9,923.7h53.2c0,0-16.9,27.9-43.1,9.8C2310.2,932.9,2300.9,923.7,2300.9,923.7z"/>
	</g>
	<g>
		<path class="st21" d="M2307.9,834.9c-3.1,0.3-6.4,0.6-9.6,0.8c-3.2,0.3-6.4,0.5-9.5,0.9c-3.1,0.3-6.2,0.7-9.3,1.2
			c-3.1,0.5-6,1.1-9,1.7l-0.2,0c-2.1,0.4-4.2-0.9-4.6-3c-0.4-1.7,0.5-3.4,2-4.2c3.2-1.7,6.6-2.9,10-3.7c3.4-0.8,6.9-1.3,10.3-1.6
			c3.4-0.2,6.9-0.3,10.3-0.1c3.4,0.2,6.8,0.5,10.2,1.3c1.8,0.4,3,2.2,2.6,4.1c-0.3,1.5-1.6,2.5-3,2.6L2307.9,834.9z"/>
	</g>
	<g>
		<path class="st21" d="M2346.1,828.1c3.5-0.8,6.8-1.1,10.2-1.3c3.4-0.2,6.8-0.1,10.3,0.1c3.4,0.3,6.9,0.8,10.3,1.6
			c3.4,0.8,6.8,2,10,3.7c1.9,1,2.6,3.4,1.6,5.3c-0.8,1.5-2.6,2.3-4.2,2l-0.2,0c-3-0.6-6-1.2-9-1.7c-3.1-0.4-6.2-0.8-9.3-1.2
			c-3.1-0.3-6.3-0.6-9.5-0.9c-3.2-0.3-6.4-0.5-9.6-0.8l-0.1,0c-1.9-0.2-3.2-1.9-3-3.8C2343.6,829.6,2344.7,828.4,2346.1,828.1z"/>
	</g>
	<g>
		<path class="st21" d="M2293.1,861.3c0,4.8-3,8.7-6.6,8.7s-6.6-3.9-6.6-8.7c0-4.8,3-8.7,6.6-8.7S2293.1,856.5,2293.1,861.3z"/>
	</g>
	<g>
		<path class="st21" d="M2372.5,861.3c0,4.8-3,8.7-6.6,8.7s-6.6-3.9-6.6-8.7c0-4.8,3-8.7,6.6-8.7S2372.5,856.5,2372.5,861.3z"/>
	</g>
	<g>
		<path class="st1" d="M2293.5,749.3c0,0,1.9,37.6,37.4,46.9c0,0,10.1-1,17.7,13.4c7.7,14.4-0.5,12.9,8.6,17.5
			c9.1,4.6,8.1-0.5,22.5,5.7c14.4,6.2,9.6,10.4,20.1,16.6c10.5,6.1,31.2,1.5,34-3.7c2.9-5.2,7.7-6.7,9.1-11.9c1.4-5.2,0-27.8,0-27.8
			s-17.3-12.4-23-26.8c-5.8-14.4,1.9-20.6-10.5-29.9c-12.5-9.3-31.6-17.5-35.5-21.7c-3.8-4.1-8.6-24.8-24.9-23.7
			c-16.3,1-36.4-0.6-43.6,0c-7.2,0.6-11,6.7-12,13.4C2292.6,724,2293.5,749.3,2293.5,749.3z"/>
	</g>
	<g>
		<path class="st16" d="M2535.7,1836.2h-183.9c-3.7-48.1-7-97.3-7.4-126.6c-0.1-5.9,0-14.8,0-14.8l-8.7,141.4h-208.9
			c0.2-39.8,2.3-88.2,8-145.6c0.2-2,0.4-3.9,0.6-5.9c1.9-19.1,4.3-39.1,7.1-60.1c1-7.5,2-15.2,3.2-22.9c1.2-8.3,2.4-16.7,3.8-25.2
			c1-6.3,2-12.7,3.1-19.2c0.5-3,1-6.1,1.5-9.2v0c0.9-5.4,1.8-10.8,2.8-16.3c1.9-10.7,3.8-21.5,5.9-32.6h340.1c0,0,1.5,5.9,3.8,16.5
			c0.8,3.6,1.7,7.9,2.7,12.6c0,0,0,0,0,0.1c0.2,0.8,0.3,1.7,0.5,2.5c2.1,10.1,4.4,22.2,6.9,36.1c1.9,10.8,3.9,22.6,5.8,35.2
			c3.2,20.9,6.3,44,8.8,68.5c0.4,4,0.8,8.1,1.2,12.2C2537,1731.2,2539.1,1784.5,2535.7,1836.2z"/>
	</g>
	<g>
		<path class="st15" d="M2468.6,1039.6c0,0,74.4,23.3,89.6,36.9c15.2,13.6,66.8,129.7,66.8,190.6c0,60.9,12.2,154.4,0,172
			s-66.8,104.9-103.3,125c-36.5,20.1-51.4,18.6-51.4,18.6l-8.9-90.7l39.1-143.4l-19.8-216.1L2468.6,1039.6z"/>
	</g>
	<g>
		<path class="st15" d="M2236,1021.9c8.2-3.1,30-9.3,45.4-3.6c15.3,5.7,52.2,11.4,69.7,3.6c17.6-7.8,40.3-8.9,56.1-5.5
			c15.9,3.4,60.7,12.6,86.7,34c26.1,21.4,41.9,424.8,17.8,459c-8.4,12-50.3,52.7-116.7,40.5c-53-9.8-113.2,32.9-169.8,3.9
			c-44.2-22.7-79.5-22.9-79.5-22.9s-53.3-356.4-23.8-437.6C2122.1,1093.2,2125.5,1063.3,2236,1021.9z"/>
	</g>
	<g>
		<path class="st5" d="M2344.4,1696.8C2344.4,1696.8,2344.3,1696.8,2344.4,1696.8c-1.2,0-2-1-2-2.1c0.3-10.3,5.9-17.7,14.4-28.8
			c6.2-8.2,14-18.4,22.5-33.4c0.5-1,1.8-1.3,2.7-0.8c1,0.5,1.3,1.8,0.8,2.7c-8.6,15.3-16.5,25.6-22.8,33.9
			c-8.3,10.9-13.3,17.5-13.6,26.5C2346.3,1695.9,2345.5,1696.8,2344.4,1696.8z"/>
	</g>
	<g>
		<path class="st15" d="M2237.4,1027.4c0,0-60.8,37.2-87,52.6c-26.2,15.4-43.3,38-49.4,51c-6,13.1-20.2,24.9-19.1,33.2
			c1,8.3-23.2,43.9-28.2,73.6c-5,29.7-14.1,128.2-14.1,131.7s16.1,85.4,16.1,85.4s47.4,57,57.5,70c10.1,13.1,40.3,34.4,44.3,34.4
			s29.2-20.2,28.2-40.3s-8.1-78.3-15.1-87.8c-5.5-7.4-12.3-14.1-17.4-24.1c-1.4-2.8-2.7-5.8-3.8-9.2c-5-15.4,9.1-52.2,9.1-52.2
			s45.4-130.5,43.3-148.3c-2-17.8,13.1-80.7,9.1-97.3C2206.9,1083.6,2237.4,1027.4,2237.4,1027.4z"/>
	</g>
	<g>
		<path class="st5" d="M2259.2,1565.1c-35.4,0-51.5-19.3-52.2-20.1c-0.7-0.9-0.6-2.1,0.3-2.8c0.9-0.7,2.1-0.6,2.8,0.3
			c0.2,0.3,16.7,19.8,52.4,18.6c30.9-1.1,46.5-4.8,59-7.8c2.6-0.6,5-1.2,7.5-1.8c22.6-5,53.9-10.8,65.1-4.7c1,0.5,1.3,1.8,0.8,2.7
			c-0.5,1-1.8,1.3-2.7,0.8c-11.1-6.2-49.6,2.3-62.3,5.1c-2.4,0.5-4.9,1.1-7.4,1.7c-12.7,3.1-28.5,6.8-59.8,7.9
			C2261.5,1565.1,2260.4,1565.1,2259.2,1565.1z"/>
	</g>
	<g>
		<path class="st5" d="M2158.5,1388.2c-0.9,0-1.8-0.6-2-1.6c-4.6-21.6-2.2-40.9,6.9-57.6c8.4-15.3,13.8-30.8,19.6-47.3
			c3.4-9.6,6.8-19.6,11-29.4c0.4-1,1.6-1.5,2.6-1.1c1,0.4,1.5,1.6,1.1,2.6c-4.1,9.7-7.5,19.6-10.9,29.2
			c-5.5,15.9-11.3,32.3-19.8,47.9c-8.7,15.8-10.9,34.2-6.5,54.8c0.2,1.1-0.5,2.1-1.5,2.4C2158.8,1388.2,2158.7,1388.2,2158.5,1388.2
			z"/>
	</g>
	<g>
		<path class="st5" d="M2319.6,1028.1c-15.2,0-41.1-8.5-42.3-8.9c-1-0.3-1.6-1.5-1.3-2.5c0.3-1,1.5-1.6,2.5-1.3
			c0.3,0.1,30.3,9.9,43.8,8.6c7.7-0.8,12.8-0.6,16.2-0.5c2.2,0.1,4.1,0.2,4.6-0.2c0.9-0.6,2.2-0.3,2.8,0.6c0.6,0.9,0.3,2.2-0.6,2.8
			c-1.6,1-3.6,0.9-6.9,0.8c-3.3-0.1-8.3-0.3-15.7,0.5C2321.8,1028,2320.7,1028.1,2319.6,1028.1z"/>
	</g>
</g>
<g>
	<g>
		<path class="st22" d="M2835.8,1203.8c-17.1,22-44,39.9-72.5,40.7c-2.7,0.1-7.4,0.4-13.5,0.9c-45.3,3.6-173.6,17.1-230.2,23.1
			c-16.9,1.8-27.4,2.9-27.5,2.9c-6.8,0.7-11.9-24-12.2-27.6c-0.9-12.6,3.6-24.8,9.8-35.7c6.2-11,19.8-23.8,14.8-37.7
			c-4.4-12.3-21.4-14.9-28.8-25.6c-5.3-7.8-4.4-18.5-0.3-26.9c6.2-12.4,17.7-22.9,30.1-28.6c10.7-4.9,20-10.7,24.8-20.7
			c1.1-2.2,1.9-4.6,2.5-7.3c3.3-15.1,0.3-34,10.6-47.2c8.6-11,29.3-22.6,48.9-44.6c3.1-3.5,6.2-6.7,9.4-9.8c0.7-0.7,1.4-1.4,2.2-2
			c16.5-15.1,34.1-24.5,48.9-25.5c18.3-1.2,48.9,3.1,55.6,20.8c6.7,17.7,15.3,15.3,26.3,22c11,6.7,36,12.2,41.7,50.5
			c3.2,21.6,0,31.8-0.1,39c0,4.2,0.9,7.4,4.8,11.2c1.3,1.3,3,2.7,5.1,4.3c18.7,13.9,38.3,25.2,49.7,43.2
			C2847.2,1141.1,2852.9,1181.9,2835.8,1203.8z"/>
	</g>
	<g>
		<path class="st3" d="M2835.8,1203.8c-17.1,22-44,39.9-72.5,40.7c-2.7,0.1-7.4,0.4-13.5,0.9c1.6-9,3-19.7,2.2-26.9
			c-1.6-14.7-2.5-8.2-5.7-17.9s6.5-25.2,5.7-36.7c-0.8-11.4-13.8-18.7-19.5-39.1c-5.7-20.4,6.7-33.1,6.7-33.1l37.2-27.2
			c0,4.2,0.9,7.4,4.8,11.2c1.3,1.3,3,2.7,5.1,4.3c18.7,13.9,38.3,25.2,49.7,43.2C2847.2,1141.1,2852.9,1181.8,2835.8,1203.8z"/>
	</g>
	<g>
		<path class="st2" d="M2697.8,1233.4c-7,3-15.1,5.9-24.3,7.7h-42.9c-6.3-1.3-12.8-3.2-19.5-6l0.5-23.2l3.5-54.9l0.3-4.3l0.6-9.9
			l71.8,1.9l1.2,9.4l2.3,18.3l5.1,40L2697.8,1233.4z"/>
	</g>
	<g>
		<path class="st2" d="M2740.4,1088c-2.4,9.3-10.8,15.1-18.8,13c-7.9-2.1-12.4-11.3-10-20.6s10.8-15.1,18.8-13
			C2738.4,1069.5,2742.9,1078.7,2740.4,1088z"/>
	</g>
	<g>
		<path class="st0" d="M2830,1255.8l-14.4,337.1l-106.4,3.4l-204.5,6.4l-16.3-352.4l123.3-38.3c0,0,29.4,22,84.8,0.4
			c1.3-0.5,7.2,0.6,15.8,2.7c13.3,3.3,33.3,9.1,53,15c9,6.5,18,13,35.8,14.9C2809.8,1245.9,2820.1,1250,2830,1255.8z"/>
	</g>
	<g>
		<path class="st3" d="M2588.2,1110.9c0,0,6.5,33.1-5.3,54.3c-11.8,21.2-16.7,22.4-11.8,41.7c4.9,19.4,5.9,15,4.9,26.2
			c-0.5,6.1-29.3,22.5-56.4,35.3c-16.9,1.8-27.4,2.9-27.5,2.9c-6.8,0.7-11.9-24-12.2-27.6c-0.9-12.6,3.6-24.8,9.8-35.7
			c6.2-11,19.8-23.8,14.8-37.7c-4.4-12.3-21.4-14.9-28.8-25.6c-5.3-7.8-4.4-18.5-0.3-26.9c6.2-12.4,17.7-22.9,30.1-28.6
			c10.7-4.9,20-10.7,24.8-20.7c1.1-2.2,1.9-4.6,2.5-7.3c3.3-15.1,0.3-34,10.6-47.2c8.6-11,29.3-22.6,48.9-44.6
			c3.1-3.5,6.2-6.7,9.4-9.8c0.7-0.7,1.4-1.4,2.2-2l7,77.7L2588.2,1110.9z"/>
	</g>
	<g>
		<path class="st2" d="M2721,1073.5c0,52.6-30.1,95.3-67.2,95.3s-70.9-40.2-70.9-92.8s33.7-97.7,70.9-97.7S2721,1020.9,2721,1073.5z
			"/>
	</g>
	<g>
		<path d="M2626.4,1048.1c-1.8-0.6-4.1-1.1-6.3-1.4c-2.2-0.4-4.4-0.7-6.7-0.8c-4.5-0.3-9-0.2-13.5,0.4l-0.1,0
			c-2.5,0.3-4.9-1.5-5.2-4c-0.3-2.5,1.4-4.8,3.8-5.2c5.1-0.9,10.2-1.2,15.4-1c2.6,0.1,5.1,0.3,7.7,0.6c2.6,0.4,5,0.8,7.9,1.5
			c2.8,0.7,4.4,3.6,3.6,6.3c-0.7,2.8-3.6,4.4-6.3,3.6c-0.1,0-0.1,0-0.2,0L2626.4,1048.1z"/>
	</g>
	<g>
		<path d="M2668.4,1038.7c2.9-0.7,5.3-1,7.9-1.3c2.6-0.3,5.1-0.4,7.7-0.4c5.1-0.1,10.3,0.4,15.3,1.4c2.5,0.5,4.2,2.9,3.7,5.4
			c-0.5,2.5-2.8,4.1-5.3,3.7l-0.1,0c-4.4-0.7-8.9-0.9-13.4-0.7c-2.2,0.1-4.5,0.3-6.7,0.6c-2.2,0.3-4.5,0.8-6.3,1.3l-0.2,0
			c-2.7,0.8-5.6-0.8-6.4-3.5s0.8-5.6,3.5-6.4C2668.3,1038.8,2668.3,1038.7,2668.4,1038.7z"/>
	</g>
	<g>
		<path d="M2622.4,1063.3c0,4-2.8,7.2-6.3,7.2s-6.3-3.2-6.3-7.2c0-4,2.8-7.2,6.3-7.2S2622.4,1059.3,2622.4,1063.3z"/>
	</g>
	<g>
		<path d="M2687.9,1064.5c0,4-2.8,7.2-6.3,7.2c-3.5,0-6.3-3.2-6.3-7.2c0-4,2.8-7.2,6.3-7.2C2685,1057.3,2687.9,1060.5,2687.9,1064.5
			z"/>
	</g>
	<g>
		<path class="st2" d="M2599.2,1076c5.1,8.1,3.3,18.4-4,23.1c-7.4,4.7-17.5,1.9-22.6-6.2c-5.1-8.1-3.3-18.4,4-23.1
			C2584,1065.1,2594.1,1067.9,2599.2,1076z"/>
	</g>
	<g>
		<path class="st3" d="M2781,1075.7c-10.7,9.4-23.6,20.5-25,22.6c-2.4,3.7-24.1,4.1-20.5-1.5c1.2-1.9,5.9-29.6-10.6-27.2
			s-17.7-7.3-22-14c-4.3-6.7-0.6-24.4,0-30.8c0.6-6.3-8.6-15.7-20.2-11.4c-11.6,4.3-35.4,14.7-42.1,10.4
			c-6.7-4.3-1.2-17.7-20.8-14.7c-19.5,3.1-20.2-22.6-20.2-22.6l2.1-26.9c17.1-16.3,35.6-26.5,51-27.5c18.3-1.2,48.9,3.1,55.6,20.8
			c6.7,17.7,15.3,15.3,26.3,22c11,6.7,36,12.2,41.7,50.5C2781.4,1059.4,2770.4,1065.2,2781,1075.7z"/>
	</g>
	<g>
		<path class="st1" d="M2829.3,1836.2h-321.2c1.3-49.3,12.8-106.8,24.4-153.4c1.2-4.7,2.3-9.2,3.5-13.7c8.1-31,15.8-55.9,19.7-68.1
			c1.7-5.3,2.7-8.2,2.7-8.2l43.3-2.3l12.3-0.7l96.7-5.2l61.4-3.3c0,0,0.3,4.8,1.1,12.8c1.9,16.8,6.5,47.8,17.6,79.7
			c3.9,11.3,8.6,22.7,14.3,33.6C2821.1,1738.3,2827.1,1792.8,2829.3,1836.2z"/>
	</g>
	<g>
		<path class="st10" d="M2598.4,1211.4c1.1-0.2,2,0.7,1.9,1.8c-1.5,16-11.3,115.9-13.6,120.4c-2.4,4.9-4.9,25.2-5.7,41.5
			c-0.8,16.3-0.8,22,0,44.8c0.8,22.8,3.3,47.2,5.7,62.7c2.4,15.5,12.6,70.2,13.2,85.5c0.6,15.3,1.2,22.1,4.3,35.5s7.9,26.2,6.7,35.4
			c-1.2,9.2-127.7,46.4-127.7,46.4s-12.8-8.6-14.7-22c-1.8-13.4-10.4-20.2-12.2-34.2c-1.8-14-6.5-96.5,3.3-136.2s-26.9-69-25.2-75.6
			s1.2-121.2,12.8-132.1s40.8-37.9,63.5-40.3c22.8-2.4,31.2-12.2,43.4-20.2C2564.6,1218.1,2590.8,1212.8,2598.4,1211.4z"/>
	</g>
	<g>
		<path class="st13" d="M2564,1422.1c-0.6,0-1.3-0.3-1.6-0.9c-3.5-5-2.1-9-0.6-13.2c1.7-4.7,3.5-10,0.4-19.5
			c-2.9-8.6-7.3-15.3-11.6-21.8c-5-7.5-9.7-14.6-10.8-23.3c-1-7.5,1.8-18,4.6-28.2c2.9-10.9,6-22.2,3.4-27.1
			c-2.7-5-8.8-9.8-14.7-14.5c-5.9-4.7-11.5-9.1-13.5-13.6c-1.3-2.8-1.1-8.2,15-22.2c8.4-7.3,17.3-13.6,17.4-13.7
			c0.9-0.6,2.2-0.4,2.8,0.5c0.6,0.9,0.4,2.1-0.5,2.8c-16.5,11.7-32.9,26.9-31.1,31c1.6,3.6,6.8,7.7,12.3,12.1
			c6.3,4.9,12.7,10,15.8,15.8c3.4,6.3,0.3,17.8-3,30c-2.6,9.8-5.4,19.9-4.5,26.6c1.1,7.8,5.3,14.2,10.2,21.6
			c4.2,6.4,9.1,13.7,12.1,22.8c3.6,10.8,1.3,17.3-0.4,22.1c-1.4,3.9-2.2,6.2,0.1,9.6c0.6,0.9,0.4,2.2-0.5,2.8
			C2564.7,1422,2564.3,1422.1,2564,1422.1z"/>
	</g>
	<g>
		<path class="st10" d="M2447.3,1286.5c-3.3,6.9-44.2,48.9-48.4,79.5c-4.2,30.6-18.8,42.1-17.6,80.4s-3.7,51,13.4,70.2
			c17.1,19.1,17.1,35.7,29.3,59.9c12.2,24.2-1.1,35.7,23.3,51s34.2-66.3,52.5-81.6c18.3-15.3,7.3-13.1,0-38.4s-37.9-49.6-39.1-58.5
			s7.7-20.3,9.8-27.3c1.6-5.7,17.1-138.4,19.5-155.1c2.4-16.7-12.9-6.1-12.9-6.1L2447.3,1286.5z"/>
	</g>
	<g>
		<path class="st13" d="M2480.5,1587.3c-0.3,0-0.5,0-0.8-0.1c-1-0.4-1.5-1.6-1.1-2.6c9-22.1,11-24.6,14.3-28.7
			c1.2-1.6,2.7-3.3,4.8-6.6c3.3-5.2,5.5-7.6,7-9.2c1.8-2,2.3-2.5,3-6.5c1.1-5.9-4-10.6-5.3-11.7c-1.1-0.5-1.5-2.3-4.4-17.7
			c-2.3-12.6-12.4-34.5-24.5-41c-5.9-3.2-12.7-7.8-12.8-15.2c0-4,1.4-7.7,2.8-11.3l0.3-0.9c7-18.3,10.1-38,12.2-54.8
			c0.9-7,1.1-14.1,1.3-21c0.2-6.9,0.4-13.9,1.2-21c0.1-1.1,1.1-1.9,2.2-1.7c1.1,0.1,1.9,1.1,1.7,2.2c-0.8,6.9-1,13.8-1.2,20.6
			c-0.2,7-0.4,14.2-1.3,21.4c-2.1,17.1-5.2,37.1-12.4,55.8l-0.4,0.9c-1.3,3.3-2.5,6.5-2.5,9.8c0.1,5.3,5.4,8.9,10.7,11.7
			c13.3,7.2,24,30,26.5,43.7c2.1,11.1,2.9,14.5,3.1,15.5c1.8,1.6,8,7.6,6.6,15.4c-0.9,4.9-1.8,6.1-4,8.5c-1.4,1.6-3.4,3.8-6.6,8.7
			c-2.2,3.5-3.7,5.3-5,7c-3.1,3.8-4.9,6.1-13.7,27.7C2482.1,1586.8,2481.3,1587.3,2480.5,1587.3z M2505.2,1519.1L2505.2,1519.1
			L2505.2,1519.1z"/>
	</g>
	<g>
		<path class="st17" d="M2614.1,1591.9c-1.1,0-1.9-0.8-2-1.9c-0.1-1.1,0.8-2,1.9-2.1l115.1-6.2c1.1-0.1,2,0.8,2.1,1.9
			c0.1,1.1-0.8,2-1.9,2.1l-115.1,6.2C2614.1,1591.9,2614.1,1591.9,2614.1,1591.9z"/>
	</g>
	<g>
		<path class="st10" d="M2852.1,1493c9.8,39.7,5.1,122.2,3.3,136.2c-1.8,14-10.4,20.8-12.2,34.2c-1.5,10.9-10.2,18.6-13.5,21.1
			c-0.7,0.6-1.7,0.7-2.6,0.5c-13.7-4.1-125.2-37.4-126.3-46c-1.2-9.2,3.7-22,6.7-35.4c0.6-2.7,1.1-5.1,1.6-7.4
			c1.7-9.1,2.2-15.9,2.7-28.1c0.6-15.3,10.8-70,13.2-85.5c2.4-15.5,4.9-39.9,5.7-62.7c0.8-22.8,0.8-28.5,0-44.8
			c-0.8-16.3-3.3-36.7-5.7-41.5c-2.2-4.4-11-98-12.9-117.9c0-0.2,0-0.4,0-0.6c0.2-1.6,1.7-2.8,3.3-2.5c9.1,1.5,32.4,5.9,42.1,12.2
			c2.6,1.7,5.1,3.5,7.5,5.3c9,6.5,18,13,35.8,14.9c8.8,0.9,19,5,28.9,10.8c14.9,8.6,29,21.1,36,32.2c13.1,20.9,8.1,50.9,9.2,74.3
			c0.8,17.3-2,38.3,2.2,55.2C2879,1424,2842.4,1453.3,2852.1,1493z"/>
	</g>
	<g>
		<path class="st13" d="M2741.2,1423.7c-0.4,0-0.8-0.1-1.1-0.4c-0.9-0.6-1.1-1.9-0.5-2.8c2.3-3.4,1.5-5.7,0.1-9.6
			c-1.7-4.8-4-11.3-0.4-22.1c3-9.1,7.8-16.4,12.1-22.8c4.9-7.4,9.2-13.9,10.2-21.6c0.9-6.7-1.8-16.8-4.5-26.6
			c-3.3-12.2-6.4-23.7-3-30c3.1-5.8,9.5-10.9,15.8-15.8c5.5-4.3,10.7-8.4,12.3-12.1c1.9-4.3-12.9-20.3-27.6-32.6
			c-0.8-0.7-1-2-0.3-2.8c0.7-0.8,2-1,2.8-0.3c7.8,6.5,32.8,28.3,28.7,37.3c-2,4.5-7.6,8.9-13.5,13.6c-5.9,4.7-12.1,9.5-14.7,14.5
			c-2.6,4.9,0.4,16.2,3.4,27.1c2.7,10.2,5.6,20.7,4.6,28.2c-1.2,8.7-5.9,15.8-10.8,23.3c-4.3,6.5-8.8,13.3-11.6,21.8
			c-3.2,9.5-1.3,14.8,0.4,19.5c1.5,4.2,2.9,8.2-0.6,13.2C2742.5,1423.4,2741.8,1423.7,2741.2,1423.7z"/>
	</g>
	<g>
		<path class="st10" d="M2864.1,1286.5c3.3,6.9,44.2,48.9,48.4,79.5c4.2,30.6,18.8,42.1,17.6,80.4s3.7,51-13.4,70.2
			c-17.1,19.1-17.1,35.7-29.3,59.9c-12.2,24.2,1.1,35.7-23.3,51c-24.4,15.3-34.2-66.3-52.5-81.6c-18.3-15.3-7.3-13.1,0-38.4
			c7.3-25.3,37.9-49.6,39.1-58.5c1.2-8.9-7.7-20.3-9.8-27.3c-1.6-5.7-17.1-138.4-19.5-155.1c-2.4-16.7,12.9-6.1,12.9-6.1
			L2864.1,1286.5z"/>
	</g>
	<g>
		<path class="st13" d="M2801.6,1610.3c-0.7,0-1.4-0.4-1.8-1.1c0-0.1-3.7-7.1-12.1-14.8c-1.4-1.3-2.7-2.4-4.1-3.5
			c-7.1-6-13.2-11.1-11-25.6c1.3-8.2,3.8-11.9,6.5-15.8c2.8-4,5.6-8.1,7.9-18.2c4.6-20.3,34.5-98.8,35.8-102.1
			c0.4-1,1.5-1.5,2.6-1.2c1,0.4,1.5,1.5,1.2,2.6c-0.3,0.8-31,81.6-35.6,101.5c-2.5,10.8-5.7,15.5-8.5,19.6
			c-2.5,3.7-4.7,6.8-5.8,14.1c-1.9,12.2,2.7,16.1,9.6,21.9c1.4,1.1,2.8,2.3,4.2,3.6c9,8.2,12.8,15.7,12.9,16c0.5,1,0.1,2.2-0.9,2.7
			C2802.2,1610.2,2801.9,1610.3,2801.6,1610.3z"/>
	</g>
	<g>
		<path class="st17" d="M2659.6,1829.2c-1.1,0-2-0.9-2-2v-118.6l-25.9-21.6c-0.8-0.7-1-2-0.3-2.8c0.7-0.8,2-1,2.8-0.3l26.6,22.2
			c0.5,0.4,0.7,0.9,0.7,1.5v119.5C2661.6,1828.3,2660.7,1829.2,2659.6,1829.2z"/>
	</g>
	<g>
		<path class="st6" d="M2691.4,1172.4c-5.2,7.1-13.1,13.2-23.4,14.2c-21.1,2.1-41.7-17.5-52.8-29.6l0.3-4.3c1.1,0.5,2.3,0.9,3.8,1.4
			c8.5,2.8,21.5,5.7,38.8,5.7c12.5,0,22.1-2.6,29-5.7l2,0L2691.4,1172.4z"/>
	</g>
	<g>
		<g>
			<path d="M2651,1093.2h-5.5c-0.5,0-0.9-0.4-0.9-0.9v-20.6c0-0.5,0.4-0.9,0.9-0.9s0.9,0.4,0.9,0.9v19.7h4.6c0.5,0,0.9,0.4,0.9,0.9
				C2651.9,1092.8,2651.5,1093.2,2651,1093.2z"/>
		</g>
	</g>
	<g>
		<path class="st7" d="M2647.5,1127.7c-4.2,0-8.5-0.8-12.8-2.3c-0.5-0.2-0.8-0.8-0.6-1.3c0.2-0.5,0.8-0.8,1.3-0.6
			c12.6,4.6,26,1.8,32.6-6.9c0.3-0.4,1-0.5,1.4-0.2s0.5,1,0.2,1.4C2664.7,1124.2,2656.5,1127.7,2647.5,1127.7z"/>
	</g>
	<g>
		<path d="M2582.9,1096.3c0,0.8-0.7,1.5-1.5,1.5c-0.8,0-1.5-0.7-1.5-1.5c0-0.8,0.7-1.5,1.5-1.5
			C2582.2,1094.8,2582.9,1095.5,2582.9,1096.3z"/>
	</g>
	<g>
		<path d="M2724.5,1096.8c0,0.8-0.7,1.5-1.5,1.5s-1.5-0.7-1.5-1.5c0-0.8,0.7-1.5,1.5-1.5S2724.5,1096,2724.5,1096.8z"/>
	</g>
	<g>
		<circle cx="2576" cy="1092.1" r="1.1"/>
	</g>
</g>
<g>
	<g>
		<g>
			<g>
				<path class="st2" d="M2138,1188.9l-34.6,41.1l-11,13.1l-97.6,116.1l5.7-161.9c13.3-0.8,23.7-11.9,23.7-25.2v-54.4l69.3,2.5
					c0.9,6.2,1.9,12.5,2.8,18.7c0.2,1.1,0.3,2.1,0.5,3.2c0,0.2,0,0.3,0.1,0.5c0.5,3.6,0.9,7.8,1.3,12.2c0.1,0.9,0.2,1.8,0.3,2.7
					c1.6,16,5.1,33.5,23.9,32.3L2138,1188.9z"/>
			</g>
			<g>
				<path class="st6" d="M2098.3,1154.8c-4.7,8.1-12.3,15.6-22.7,16.7c-19.9,2.2-39.3-19.2-48.9-31.1c-1-1.3-1.8-2.4-2.4-3.4v-1.4
					c1.6,0.9,3.9,2.1,7.3,3.4c7.7,2.8,19.4,5.7,35,5.7c11.3,0,19.9-2.6,26.2-5.7l3.6-0.1c0.2,1.1,0.3,2.1,0.5,3.2
					c0,0.2,0,0.3,0.1,0.5C2097.5,1146.2,2097.8,1150.4,2098.3,1154.8z"/>
			</g>
			<g>
				<path d="M2129.3,1103.9c0,0,82.7-9,49.1-112.5c-33.7-103.5-137.2-79.1-137.2-79.1s-76.6,31.2-85.8,96.8
					c-9.3,65.6,46.3,83.6,46.3,83.6L2129.3,1103.9z"/>
			</g>
			<g>
				<path d="M2093.2,917.7c0,0,23.7-39.9,14.6-49.9c-9.1-10-20.7-21.6-43.8-17.5c-23.1,4.2-28,27.1-25.8,34.7
					c2.2,7.7,7.9,22.9,15.4,35.3S2093.2,917.7,2093.2,917.7z"/>
			</g>
			<g>
				<g>
					<path class="st2" d="M1999.6,1057.7c-4.7,49.7,22.3,92.9,60.4,96.5s72.8-33.7,77.5-83.4c4.7-49.7-22.3-92.9-60.4-96.5
						C2039,970.7,2004.3,1008,1999.6,1057.7z"/>
				</g>
			</g>
			<g>
				<path d="M2057.2,962c0,0,28.6,57.7,84.2,88.8c55.5,31.1,5.5-79.1,5.5-79.1L2057.2,962z"/>
			</g>
			<g>
				<path class="st2" d="M1978.6,1052.2c0,11.3,9.8,22.3,18,22.3s14.7-9.2,14.7-20.5s-10.8-20.5-18.9-20.5
					C1984.2,1033.4,1978.6,1040.9,1978.6,1052.2z"/>
			</g>
			<g>
				<path class="st2" d="M2151.4,1058c0,11.3-9.8,22.3-18,22.3s-14.7-9.2-14.7-20.5c0-11.3,10.8-20.5,18.9-20.5
					S2151.4,1046.6,2151.4,1058z"/>
			</g>
			<g>
				<g>
					<path d="M2033.8,1050c0,4.4,2.7,7.9,6.1,7.9c3.4,0,6.1-3.6,6.1-7.9s-2.7-7.9-6.1-7.9C2036.5,1042.1,2033.8,1045.7,2033.8,1050z
						"/>
				</g>
			</g>
			<g>
				<g>
					<ellipse cx="2101.4" cy="1054" rx="6.1" ry="7.9"/>
				</g>
			</g>
			<g>
				<g>
					<path d="M2050,1031.7c-0.5,0.1-1,0.1-1.5,0c-13.6-2-21.9,2.2-22.2,2.3c-2.3,1.2-5.2,0.7-6.6-1.1c-1.3-1.8-0.6-4.2,1.6-5.4
						c0.5-0.2,11.8-6.1,29.3-3.5c2.6,0.4,4.2,2.4,3.6,4.5C2053.8,1030.2,2052,1031.4,2050,1031.7z"/>
				</g>
			</g>
			<g>
				<g>
					<path d="M2119.2,1035.9c-0.5-0.1-1-0.3-1.4-0.5c-12.3-6.1-21.5-4.6-21.9-4.6c-2.5,0.4-5.2-1-5.9-3.1c-0.7-2.1,0.7-4.2,3.2-4.6
						c0.5-0.1,13.1-2.2,29,5.6c2.3,1.2,3.3,3.6,2.1,5.4C2123.2,1035.6,2121.1,1036.3,2119.2,1035.9z"/>
				</g>
			</g>
			<g>
				<g>
					<path class="st21" d="M2070.6,1081.8c-1,0-2.1-0.3-2.9-0.9c-2.6-1.9-2.7-3.2-2.4-6.2l1.2-12.8c0-0.5,0.5-0.8,0.9-0.8
						c0.5,0,0.8,0.5,0.8,0.9l-1.2,12.8c-0.3,2.7-0.2,3.3,1.7,4.7c0.7,0.5,1.7,0.7,2.6,0.5l3.2-0.7c0.5-0.1,0.9,0.2,1,0.7
						c0.1,0.5-0.2,0.9-0.7,1l-3.2,0.7C2071.3,1081.7,2070.9,1081.8,2070.6,1081.8z"/>
				</g>
			</g>
			<g>
				<path class="st0" d="M2043.4,1104c1.5,9.8,12.5,16.8,25.2,15.8c11-0.9,19.8-7.6,21.9-15.8L2043.4,1104z"/>
			</g>
			<g>
				<path class="st21" d="M1995.6,1067.4c1,0.6,1.4,1.9,0.8,2.9c-0.6,1-1.9,1.4-2.9,0.8c-1-0.6-1.4-1.9-0.8-2.9
					C1993.3,1067.2,1994.6,1066.8,1995.6,1067.4z"/>
			</g>
			<g>
				<path class="st21" d="M2138.7,1071.5c1,0.6,1.4,1.9,0.8,2.9c-0.6,1-1.9,1.4-2.9,0.8c-1-0.6-1.4-1.9-0.8-2.9
					C2136.3,1071.3,2137.6,1070.9,2138.7,1071.5z"/>
			</g>
			<g>
				<polygon class="st2" points="2188.1,1667.6 2130.2,1692.6 2096.9,1657.5 2169.6,1605 2200.5,1662.6 				"/>
			</g>
			<g>
				<path class="st2" d="M1860.5,1806.6l13.1-4.3c0,0,1.6-2.3-0.2-5.3c-1.8-3-6.1-2.9-8.2-2.6c-2.1,0.2-6.4,1.8-6.4,1.8
					s-5.1-5.9-10.4-8.5c0,0,1.4-7.2-1.1-11.9c0,0,5.4-5.5,4.8-13.5c0,0,0.6-1,1.4-2.5c0.7,0.3,2,0.9,2.9,1.4
					c1.2,0.7,1.3,4.6,0.8,6.9s-1,9.7-0.3,14s4,7.1,8.8,6.9c4.8-0.2,5-4.9,5.9-9.1c0.9-4.2,0.5-8.1,0.2-15.7s1.6-11.3,3.1-18.5
					c1.4-7.1,0.9-12.9,0.9-12.9c-0.6-6-3-13.1-3.6-15c0.7-4.3,0.6-8.3-0.7-11.4c-2.5-5.4,5.5-44.9,5.5-44.9l-40.3,4.6l3.8,44.6
					c0,0-12.6,26.4-16.8,38.3c-4.2,11.9-7.2,18.1-6.6,24c0,0,6.1,23.7,12.4,29c6.5,5.4,20.8,14.8,25,15.1c4.5,0.3,16.5-1.3,16.5-1.3
					s2.7-0.1,4.7-1.2c0,0,1.9,0,0.4-4C1874.5,1806.9,1870.4,1807.9,1860.5,1806.6z"/>
			</g>
			<g>
				<path class="st23" d="M1930.4,1226.3c0,0-34.9,19.1-39.9,46c-5,26.9-21.9,64.9-31.1,80.7c-9.3,15.8-21,48.3-22.7,59.4
					s-25.2,170.2-18.5,208.1c6.7,38,1.5,67.5,14.5,72.8c13,5.3,54.5,0,54.5,0l60.6-369.3L1930.4,1226.3z"/>
			</g>
			<g>
				<path class="st24" d="M2183,1836.2h-334.7c0.8-6.5,1.6-13.1,2.5-20c1-7.9,2.2-16.1,3.4-24.4c0.7-4.9,1.5-9.9,2.3-15v0
					c3.6-22.6,8.1-46.6,13.4-71.5v0c0.3-1.6,0.7-3.2,1.1-4.8c0,0,0,0,0,0c0.4-1.7,0.8-3.5,1.2-5.2c0-0.1,0.1-0.3,0.1-0.4
					c1.7-7.6,3.5-15.2,5.4-23c1.1-4.5,2.3-9.1,3.5-13.7c4.8-18.6,10.2-37.5,16.2-56.5c0,0,0,0,0,0c1.1-3.4,2.1-6.7,3.2-10.1
					c0,0,1-1,3.6-2.4c5.9-3.2,19.9-8.9,49.4-11.7v0c0,0,0.1,0,0.1,0c14.4-1.4,32.4-2.1,55-1.6c25,0.6,55.5,2.7,92.7,7.3
					c0,0,2.1,7.1,5.6,18.5c3.2,10.3,7.6,24.2,12.7,39.4c4.7,14,10.1,29.1,15.7,43.7c0.6,1.6,1.3,3.2,1.9,4.8
					c7.4,18.6,15.1,36,22.6,48.5C2170.7,1756.3,2178.2,1795.6,2183,1836.2z"/>
			</g>
			<g>
				<path class="st23" d="M1900.6,1484.7c0.8-8.4,5.5-64.8,5.5-64.8s3-80,0.2-107.7c-1.8-17.4,10.4-51.8,19.7-75
					c1.6-4,3.1-7.6,4.5-10.8l18.1-7.5l62-25.7c0,0-12.4,93.1-5.6,143.6c0,0,98.7-103.2,118.9-150.4c0,0,67.3,12.3,84.2,10.1
					c16.8-2.3,55,7.8,70.7,125.7c15.7,117.8,66.2,179.5,68.5,200.9c2.2,21.3,13.5,44.9-13.5,71.8s-71.8,68.4-77.4,76.3
					c-5.6,7.8-60.6,21.3-60.6,21.3l-57.1-103.7c-1.9-3.4-0.4-7.6,3.1-9.1c9.6-4.1,26.8-11.6,31.6-14c6.7-3.4,49.9-25.8,49.9-25.8
					s-33.9-46-38.1-94.8c-1.9-21.8-2.8-39.1-3.1-51.5c-0.5,41.8-5.9,129.3-40.1,174.4l-18,33.7h-226.5c0,0-1.1-7.1,0-13.3
					C1899.4,1577.1,1899.8,1493.1,1900.6,1484.7z"/>
			</g>
		</g>
		<g>
			<path class="st25" d="M1841,1696c-0.2,0-0.4,0-0.5-0.1l-12.2-3.3c-2.9-0.8-6.3-4.2-8-23.5c-0.8-9.6-0.8-19.2-0.8-20.2l-4.6-54.6
				c0-0.1,0-0.2,0-0.3l2.9-46.9c0.1-1,10.3-92.3,13.6-112.6c3.4-21.2,8.5-46.5,21-72.4c12.4-25.8,33.1-77.7,33.4-78.2
				c0.4-1,1.6-1.5,2.6-1.1c1,0.4,1.5,1.6,1.1,2.6c-0.2,0.5-21.1,52.6-33.5,78.5c-12.2,25.5-17.3,50.3-20.7,71.3
				c-3.2,20.2-13.5,111.4-13.6,112.4l-2.9,46.7l4.6,54.5c0,0.1,0,0.1,0,0.2c-0.2,20.7,2.5,39,5.8,39.9l12.2,3.3
				c1.1,0.3,1.7,1.4,1.4,2.5C1842.7,1695.4,1841.9,1696,1841,1696z"/>
		</g>
		<g>
			<path class="st25" d="M1894,1564.2c-0.5,0-1.1-0.2-1.5-0.6c-0.6-0.7-6.3-8.2-7.1-54c-0.8-45.8,8.4-80,10.9-83.5
				c0.6-0.9,1.9-1.1,2.8-0.5c0.9,0.6,1.1,1.9,0.5,2.8c-1.7,2.7-11,35.5-10.2,81.1c0.8,43.3,5.8,51,6.2,51.4c0.7,0.8,0.6,2-0.2,2.8
				C1895,1564,1894.5,1564.2,1894,1564.2z"/>
		</g>
		<g>
			<path class="st25" d="M2005,1338.8c-0.2,0-0.4,0-0.7-0.1c-0.7-0.3-1.2-0.9-1.3-1.7c-0.1-0.6-6.9-63.5,5.2-143.2
				c0.2-1.1,1.2-1.8,2.3-1.7c1.1,0.2,1.8,1.2,1.7,2.3c-10.2,67.4-6.9,122.6-5.6,137.9c16.6-16.8,96.7-99.5,115.5-146.6
				c0.4-1,1.6-1.5,2.6-1.1c1,0.4,1.5,1.6,1.1,2.6c-21.2,53.2-115.4,147.1-119.4,151C2006,1338.6,2005.5,1338.8,2005,1338.8z"/>
		</g>
		<g>
			<path class="st25" d="M2256.4,1673.2c-0.5,0-0.9-0.2-1.3-0.5c-0.8-0.7-1-2-0.2-2.8c0.2-0.2,19.9-23.6,57.2-56.5l1.3-1.1
				c12.9-11.4,28.9-25.5,33.9-42.2c6.2-20.8,1.8-45.4-13.3-73.2c-12.4-23-22.2-47.8-31.6-71.7c-1-2.6-2-5.1-3-7.7
				c-0.4-1,0.1-2.2,1.1-2.6c1-0.4,2.2,0.1,2.6,1.1c1,2.6,2,5.1,3,7.7c9.4,23.8,19,48.5,31.4,71.3c15.6,28.7,20.1,54.4,13.6,76.2
				c-5.3,17.8-21.8,32.4-35.1,44.1l-1.3,1.1c-37,32.7-56.6,55.8-56.8,56.1C2257.5,1673,2256.9,1673.2,2256.4,1673.2z"/>
		</g>
		<g>
			<path class="st25" d="M2172.9,1490.5c-0.1,0-0.2,0-0.4,0c-1.1-0.2-1.8-1.3-1.6-2.3c0-0.1,1.2-6.2,3.7-21.6
				c2.5-15.3,5.3-72.5,5.4-73.1c0.1-1.1,1-2,2.1-1.9c1.1,0.1,2,1,1.9,2.1c-0.1,2.4-2.9,58.1-5.4,73.5c-2.5,15.4-3.7,21.6-3.7,21.7
				C2174.7,1489.9,2173.8,1490.5,2172.9,1490.5z"/>
		</g>
	</g>
	<g>
		<path class="st21" d="M2051.9,1215.7c-3,0-5.8-0.4-8.5-1.1c-18.7-5.1-24.9-26.6-25-26.8l1-0.3c0.1,0.2,6.1,21.2,24.3,26.1
			c16.6,4.6,37.9-5.3,63.1-29.4l0.7,0.7C2086.1,1205.4,2067.5,1215.7,2051.9,1215.7z"/>
	</g>
</g>
<g>
	<g>
		<g>
			<path class="st6" d="M1508.2,1686.8c0,0,21,6.2,25.1,7.1c0,0-7.2,29.6-21.9,36.8l-0.4,0.2L1508.2,1686.8z"/>
		</g>
		<g>
			<g>
				<g>
					<path class="st7" d="M1490.1,1213.6c0,0,5.5-4.2,12.5,2c37.4,32.9,33.8,90,33.2,104.7s12.9,68.2,20,88.3
						c7.1,20.1,15.6,32,20.8,66.9c5.2,34.9,0,104,0.6,112.6c0.6,8.5,7.4,49.9,11,61.2c2.7,8.5-0.4,34.2-9.7,38.4
						c-9.3,4.1-15.4,9.5-49.6,5.3c-34.3-4.2-25.5-15.6-26-31.4c-0.6-15.8-5.5-29.9-5.7-37c-0.2-7-1.5-20.3-1.5-38
						c0.1-17.7,1.3-10.8-2.2-27.9c-3.5-17.1-28.3-103.7-19.3-125s-24.7-92.8-24.2-98.2c0.5-5.4-8.1-54.4-8.1-54.4s7.4-23,19.1-39.5
						S1488.4,1215.9,1490.1,1213.6L1490.1,1213.6z"/>
				</g>
				<g>
					<path class="st23" d="M1361.8,1513.6v65.2l-1.4,65.8l-0.2,10.1c0,0,0,0,0,0l-3.9,181.5h-156.8l15.3-184.6l1.7-20.5l0.5-5.6
						l0.8-10.1c0,0,0,0,0,0l3.3-39.4l3.1-37.9l2-24.6H1361.8z"/>
				</g>
				<g>
					<path class="st23" d="M1521.3,1836.2h-156.8l-3.9-184.8c0,0,0,0,0,0l-0.1-6.8l-1.4-65.8v-65.2h135.6l8,96v0l1.1,13.5l0.1,1.5v0
						l0.7,8.7v0l4.4,53.7l0.1,0.7l3.5,42.5L1521.3,1836.2z"/>
				</g>
				<g>
					<path class="st26" d="M1207.1,1140.7c0,0-8.9-55.5,12.8-84c21.7-28.5,14.8-53,14.8-66.2c0-13.2,3.9-55,22.7-70.3
						c18.7-15.3,26.6-48.9,87.6-36.7c0,0,15.8-9.2,56.1-4.1c40.4,5.1,57.1,58.1,59.1,69.3c2,11.2,5.9,34.6,15.8,45.8
						c9.8,11.2,19.7,36.7,12.8,62.1c-6.9,25.5-7.2,30.6,2.3,54c9.5,23.4,4.6,30.1,4.6,30.1S1380.4,1188.1,1207.1,1140.7z"/>
				</g>
				<g>
					<polygon class="st2" points="1405.5,1183.5 1309.4,1183.5 1319.2,1116.4 1319.8,1111.9 1321.2,1102.5 1393.7,1102.5 
						1395.2,1113.1 1398.1,1132.5 					"/>
				</g>
				<g>
					<path class="st6" d="M1398.1,1132.5c-5.5,7.1-13.5,13.2-24.1,14.2c-21.9,2.1-43.3-17.8-54.8-30.3l0.7-4.5
						c1,0.4,2.1,0.8,3.3,1.2c8.9,2.9,22.4,5.9,40.5,5.9c13.1,0,23.1-2.7,30.3-5.9l1.3,0L1398.1,1132.5z"/>
				</g>
				<g>
					<ellipse class="st2" cx="1354.2" cy="1016" rx="82" ry="110.9"/>
				</g>
				<g>
					<path class="st2" d="M1297.3,1035.4c4.2,11.5,0.6,23.6-8.2,27.1c-8.8,3.5-19.3-3.1-23.5-14.6c-4.2-11.5-0.6-23.6,8.2-27.1
						C1282.5,1017.4,1293.1,1023.9,1297.3,1035.4z"/>
				</g>
				<g>
					<path class="st2" d="M1422.1,1035.4c-4.2,11.5-0.6,23.6,8.2,27.1c8.8,3.5,19.3-3.1,23.5-14.6s0.6-23.6-8.2-27.1
						C1436.9,1017.4,1426.3,1023.9,1422.1,1035.4z"/>
				</g>
				<g>
					<g>
						<path class="st7" d="M1297.6,994.3c-1.7,0-3.4-1.1-4.1-2.8c-1-2.3,0.1-5,2.3-6c21.3-9.3,37.5-0.6,38.2-0.3
							c2.2,1.2,3,4,1.8,6.2c-1.2,2.2-3.8,3.1-6,1.9c-0.6-0.3-13.4-6.9-30.5,0.6C1298.7,994.2,1298.2,994.3,1297.6,994.3z"/>
					</g>
				</g>
				<g>
					<g>
						<path class="st7" d="M1376.3,994.3c-1.7,0-3.4-1.1-4.1-2.8c-1-2.3,0.1-5,2.3-6c21.3-9.3,37.5-0.6,38.2-0.3
							c2.2,1.2,3,4,1.8,6.2c-1.1,2.2-3.8,3.1-6,1.9c-0.6-0.3-13.4-6.9-30.5,0.6C1377.4,994.2,1376.8,994.3,1376.3,994.3z"/>
					</g>
				</g>
				<g>
					<path class="st7" d="M1321.2,1018.2c0,5.2-3.2,9.5-7.2,9.5c-4,0-7.2-4.2-7.2-9.5c0-5.2,3.2-9.5,7.2-9.5
						C1317.9,1008.7,1321.2,1013,1321.2,1018.2z"/>
				</g>
				<g>
					<path class="st7" d="M1400.9,1018.2c0,5.2-3.2,9.5-7.2,9.5c-4,0-7.2-4.2-7.2-9.5c0-5.2,3.2-9.5,7.2-9.5
						C1397.7,1008.7,1400.9,1013,1400.9,1018.2z"/>
				</g>
				<g>
					<path class="st26" d="M1344.9,915.1c0,0-48.3,68.9-55.1,104.8s-46.3,24.6-50.2,25.6c-3.9,1,23.6-114.1,23.6-114.1l81.7-35.7
						V915.1z"/>
				</g>
				<g>
					<path class="st26" d="M1344.9,891.2v4.5v19.4c10.8,22.6,24.4,43.8,40.6,62.6c17.2,19.9,38.7,37.3,59.7,52.8
						c3.6,2.6,8.8,5.5,12.1,8.4c-2.9-17.4-8.4-34.8-11.6-52.2c-3-15.6-4.9-32.2-9.7-47.7C1434.6,936.7,1344.9,891.2,1344.9,891.2z"
						/>
				</g>
				<g>
					<path class="st7" d="M1303.8,1136.7c0,0-4.5,8.8-4.5,17.1c0,8.3,7.1,30.4-11.6,31.4c-18.7,0.9-80.2,41.5-96.3,53.5
						c-16.1,12-11.6,37.8-11.6,37.8s33,334.2,38.4,339.8c5.4,5.5,82.3-74,111-70.6c28.8,3.5,19.6,9.9,31.2,9s16.1-10.1,19.6-9.7
						c3.6,0.5,15.6,2.8,21.4,6.9c5.8,4.2,28.1-2.3,43.3,11.5s75.8,60,75.8,60s8-65.5-5.4-85.8c-13.4-20.3,5.4-199.3,0-205.8
						c-5.4-6.5-9.8-114.4-9.8-114.4s-56.4-30.2-74.5-30.9c-18.1-0.7-13.4-44.3-13.4-44.3L1303.8,1136.7z"/>
				</g>
				<g>
					<path class="st7" d="M1354.1,1092.6c-4.2,0-8.5-0.8-12.8-2.3c-0.5-0.2-0.8-0.8-0.6-1.3c0.2-0.5,0.8-0.8,1.3-0.6
						c12.6,4.6,26,1.8,32.6-6.9c0.3-0.4,1-0.5,1.4-0.2c0.4,0.3,0.5,1,0.2,1.4C1371.4,1089.1,1363.1,1092.6,1354.1,1092.6z"/>
				</g>
				<g>
					<path class="st7" d="M1431.8,1091.7c-0.2,0-0.4,0-0.6,0c-5.1-0.2-9.5-2.8-12-7.2c-0.2-0.4-0.1-0.8,0.3-1c0.4-0.2,0.8-0.1,1,0.3
						c2.3,3.9,6.2,6.3,10.8,6.4c4.8,0.2,9.4-2.1,12.1-5.9c4-5.9,4.7-14.5,1.5-20.6c-2.2-4.2-5.9-6.5-10.4-6.5
						c-0.4,0-0.7-0.3-0.7-0.8s0.3-0.8,0.8-0.8c0,0,0,0,0,0c5.1,0,9.3,2.6,11.8,7.3c3.4,6.6,2.8,15.9-1.6,22.2
						C1441.7,1089.2,1436.9,1091.7,1431.8,1091.7z"/>
				</g>
				<g>
					<path class="st7" d="M1276.3,1091.7c-5.1,0-9.9-2.5-12.8-6.6c-3.8-5.5-4.1-13.1-0.8-19.5c2.9-5.6,8.2-9,14.1-9c0,0,0,0,0,0
						c0.4,0,0.8,0.3,0.8,0.8s-0.3,0.8-0.7,0.8c-5.4,0-10,3-12.8,8.2c-3.1,5.9-2.8,12.9,0.7,17.9c2.7,3.9,7.3,6.2,12.1,5.9
						c4.6-0.2,8.5-2.5,10.8-6.4c0.2-0.4,0.7-0.5,1-0.3c0.4,0.2,0.5,0.7,0.3,1c-2.5,4.4-6.9,7-12,7.2
						C1276.7,1091.7,1276.5,1091.7,1276.3,1091.7z"/>
				</g>
				<g>
					<g>
						<path class="st7" d="M1354.7,1051.4h-1.2c-4,0-7.2-3.3-7.2-7.5v-21.7c0-0.7,0.5-1.2,1.2-1.2s1.2,0.6,1.2,1.2v20.5
							c0,3.4,2.7,6.2,6,6.2l0,0c0.7,0,1.2,0.6,1.2,1.2C1355.9,1050.8,1355.4,1051.4,1354.7,1051.4z"/>
					</g>
				</g>
				<g>
					<path class="st2" d="M1317,1598.3l-43.2-26.2l3-8.8c2.2-3.1,4.6-6.6,1.8-9.3c-2.9-2.7-7.5-3.3-11.2-1.5l-48.2,24.5l-34.1,27.9
						c22.2,21.9,38.5,23.5,48.5,21c1,0.5,2.1,0.9,3.1,1.4l37,14.3c3.3,1.8,7.7,0.9,9.9-1.9c1.6-2.1,2.6-5.6-4.3-9.8l6.9,4.2
						c3.5,1.9,8.1,0.9,10.4-2.1c2.1-2.7,0.6-6.8-3.3-9.8l5.4,2.6c3.9,2,9,0.8,11.1-2.8c1.8-3.2,0.4-7.1-2.9-9.1l-7.6-4.6l8.9,1
						c4.3,1.9,10.1,2.6,12.2-1.3C1322,1604.5,1320.5,1600.4,1317,1598.3L1317,1598.3L1317,1598.3z"/>
				</g>
				<g>
					<path class="st7" d="M1191.4,1238.7c0,0-94.2,89.2-102.9,102.6c-8.3,12.7-13.8,15.7-19.6,20.2s-4,8.2-23.6,40.6
						c-14.6,24.2-23.4,64.4-13.3,92.1c10.4,28.7,38.1,48.3,63.8,62.3c27.8,15.2,33.2,20.1,55.4,33.6c22.2,13.5,28.1,16.1,40.2,29.1
						c7.2,7.7,24.5,11.4,34.9,14.8c4.6,1.5,10.2-3.6,11.5-8.4l20.1-68.4c0,0-17.4-43-52.2-60.5c-19.9-10-43.1-20.4-54.4-30.4
						c-9.2-8.1,24.1-25.4,31.1-31.4c5.7-4.9,27.7-24.7,31.7-26.1s15.7-57.8,15.7-58.7S1191.4,1238.7,1191.4,1238.7z"/>
				</g>
			</g>
			<g>
				<path class="st27" d="M1355.2,1772.6C1355.2,1772.6,1355.2,1772.6,1355.2,1772.6c-1.2,0-2-1-2-2.1c0.1-4.5,3-110.1,5.8-122.4
					c3.2-14,28.5-40.3,29.6-41.4c0.8-0.8,2-0.8,2.8-0.1c0.8,0.8,0.8,2,0,2.8c-0.3,0.3-25.6,26.7-28.6,39.6
					c-2.7,11.9-5.7,120.5-5.7,121.6C1357.2,1771.7,1356.3,1772.6,1355.2,1772.6z"/>
			</g>
		</g>
	</g>
	<g>
		<path class="st28" d="M1196.8,1425.4c-0.6,0-1.2-0.3-1.6-0.8c-0.7-0.9-0.5-2.1,0.3-2.8c11.8-9.3,22.3-20.7,31.1-33.7
			c1.5-2.2,3-4.9,4.5-7.7c3.6-6.6,7.4-13.4,13-16.8c0.9-0.6,2.2-0.3,2.8,0.7c0.6,0.9,0.3,2.2-0.7,2.8c-4.7,2.9-8.2,9.2-11.6,15.4
			c-1.6,2.9-3.1,5.6-4.7,8c-9.1,13.4-19.9,25.1-32,34.6C1197.7,1425.3,1197.2,1425.4,1196.8,1425.4z"/>
	</g>
	<g>
		<path class="st28" d="M1257.6,1533.5c-0.7,0-1.5-0.4-1.8-1.1l0,0c-0.1-0.1-6.1-12.3-19.4-18c-14.4-6.1-18.5-10.2-18.7-10.4
			c-0.8-0.8-0.8-2,0-2.8c0.8-0.8,2-0.8,2.8,0c0,0,4,3.8,17.4,9.5c14.7,6.3,21.1,19.4,21.4,19.9c0.5,1,0.1,2.2-0.9,2.7
			C1258.2,1533.5,1257.9,1533.5,1257.6,1533.5z"/>
	</g>
	<g>
		<path class="st28" d="M1505.3,1578.9c-0.2,0-0.3,0-0.5-0.1c-1.1-0.3-1.7-1.3-1.5-2.4c0-0.1,2.4-10.5-0.8-29.6l-0.7-4.1
			c-1.8-10.2-1.8-10.6-0.7-16c0.5-2.1,1.1-5,1.9-10c2.8-17.7-13.3-79.8-13.4-80.4c-0.3-1.1,0.4-2.2,1.4-2.4c1.1-0.3,2.2,0.4,2.4,1.4
			c0.7,2.6,16.4,63.5,13.5,82c-0.8,5.1-1.4,8-1.9,10.2c-1,4.6-1,4.6,0.7,14.5l0.7,4.1c3.4,20,0.9,30.8,0.8,31.2
			C1507.1,1578.3,1506.2,1578.9,1505.3,1578.9z"/>
	</g>
</g>
</svg>
